<svg fill="none" height="400" viewBox="0 0 1040 400" width="1040" xmlns="http://www.w3.org/2000/svg" xmlns:xlink="http://www.w3.org/1999/xlink"><mask id="a" height="121" maskUnits="userSpaceOnUse" width="120" x="476" y="45"><circle fill="#eb7100" r="42.5479" transform="matrix(-.770333 -.637642 -.637642 .770333 536.052 105.334)"/></mask><mask id="b" height="37" maskUnits="userSpaceOnUse" width="52" x="720" y="100"><rect fill="#eb7100" height="29.9745" rx="5" transform="matrix(.98424008 -.17683738 .17683738 .98424008 -7.784589 128.927423)" width="48.0779" x="719.436" y="108.138"/></mask><path d="m0 0h1040v400h-1040z" fill="#ffd480"/><g stroke="#051627" stroke-linecap="round" stroke-linejoin="round" stroke-miterlimit="10" stroke-width="1.2"><path d="m59.65 352.889h920.7"/><path d="m508.662 271.251c-.853-18.615-7.842-14.565-2.326-37.995s11.16-35.195 12.135-41.98c.975-6.784-4.535-16.902-13.956-23.071s-17.494-11.561-17.494-11.561-.219-4.29-5.765-7.979c-5.545-3.689-11.241-4.852-18.238-1.215-6.996 3.638-5.992 6.992-5.992 6.992s-1.682-4.725-10.639-2.218c-9.053 2.532-10.572 11.534-10.572 11.534s-3.889-3.305-11.477 1.216c-7.613 4.424-3.545 15.342-3.545 15.342s-4.949-1.467-9.18 3.603c-4.23 5.069-.35 14.9-.112 18.874.264 4.07 6.674 17.156 9.105 23.13 2.502 5.852 12.953 23.962 18.685 31.432 5.731 7.469 18.654 35.343 22.446 95.584h69.075c-7.16-24.662-21.096-55.736-22.15-81.688z" fill="#ffe9bc"/><path d="m497.997 189.833c-.482.13-8.412.29-13.098-5.597l-4.19-2.499"/><path d="m483.566 171.549s4.148 8.515-8.141 13.263c-12.29 4.747-18.874 4.132-22.052 2.707s-5.97-7.199-4.08-10.191c1.915-2.895 13.297-11.022 16.242-14.712 2.822-3.759 5.479-10.063 10.708-10.638 5.134-.549 10.559 4.621 10.559 4.621"/><path d="m484.899 184.236s6.721 1.51 14.102-3.783"/><path d="m456.825 154.082c.078.29 3.473 12.942 3.473 12.942"/><path d="m503.816 244.7c-.528.348-8.719 6.481-19.897 5.339"/><path d="m447.817 272.151s13.712-.988 19.399-6.034"/><path d="m480.638 181.86s8.898 5.377-4.468 18.075-17.912 34.729-5.528 45.383"/><path d="m480.69 194.788s-5.587 6.572-10.306.177c-2.608-3.545-2.724-7.449-2.724-7.449"/><path d="m435.841 163.854s9.775 26.782 19.938 38.032c0 0 11.138 8.712 15.948-5.004"/></g><path d="m460.515 166.608s5.592 3.931 5.557 10.359c0 0-9.563 9.504-14.927 10.736s-7.628-.645-7.902-2.436c-.273-1.79 2.666-5.84 5.29-8.407 3.743-3.8 11.982-10.252 11.982-10.252z" fill="#051627"/><path d="m420.819 180.413s4.142 12.349 6.312 15.804c2.422 4.01 14.175 14.626 18.775 15.566 6.257 1.324 9.969-9.922 9.969-9.922" stroke="#051627" stroke-linecap="round" stroke-linejoin="round" stroke-miterlimit="10" stroke-width="1.2"/><path d="m440.646 209.157s1.529 5.698-6.487 7.849c0 0-16.363-.786-24.319-21.947" stroke="#051627" stroke-linecap="round" stroke-linejoin="round" stroke-miterlimit="10" stroke-width="1.2"/><path d="m491.448 189.129-71.195 76.916c-3.604 3.905-9.633 4.31-13.726.922l-5.524-4.572c-4.094-3.389-4.822-9.387-1.658-13.657l25.717-34.709s3.247 3.776 10.609 2.226c5.133-1.081 4.927-7.519 4.927-7.519s3.044 5.293 10.185 1.706c2.99-1.501 4.726-8.436 4.961-8.278 11.444 7.683 15.796-5.105 15.796-5.105s16.522.746 8.414-15.35z" fill="#051627"/><circle fill="#d3376c" r="42.5479" transform="matrix(-.770333 -.637642 -.637642 .770333 536.052 105.334)"/><path clip-rule="evenodd" d="m493.553 103.25c2.832 6.77 7.301 12.973 13.346 17.977 19.941 16.506 49.486 13.721 65.992-6.219 2.259-2.73 4.157-5.639 5.699-8.67-.212 9.231-3.417 18.46-9.762 26.126-14.983 18.102-41.804 20.629-59.906 5.646-10.735-8.886-15.993-21.935-15.369-34.86z" fill="#051627" fill-rule="evenodd"/><g style="mask:url(#a);stroke:#051627;stroke-width:1.2;stroke-miterlimit:10;stroke-linecap:round;stroke-linejoin:round"><path d="m620.206 94.072-79.495 96.038"/><path d="m547.314 189.488-96.038-79.496"/><path d="m609.105 84.8826-79.496 96.0384"/><path d="m556.503 178.386-96.038-79.4952"/><path d="m598.003 75.6933-79.495 96.0377"/><path d="m565.692 167.284-96.038-79.4949"/><path d="m586.901 66.5039-79.495 96.0381"/><path d="m574.882 156.183-96.038-79.4955"/><path d="m575.8 57.3146-79.496 96.0384"/><path d="m584.071 145.081-96.038-79.4951"/><path d="m564.698 48.1252-79.495 96.0378"/><path d="m593.26 133.98-96.037-79.4957"/><path d="m553.597 38.9359-79.496 96.0381"/><path d="m602.45 122.878-96.038-79.4954"/><path d="m542.495 29.7465-79.495 96.0375"/><path d="m611.639 111.776-96.038-79.495"/><path d="m531.393 20.5572-79.495 96.0378"/><path d="m620.829 100.675-96.038-79.4956"/></g><rect height="45.1589" rx="9" style="fill:#ffd480;stroke:#051627;stroke-width:1.2;stroke-miterlimit:10;stroke-linecap:round;stroke-linejoin:round" transform="matrix(-.770333 -.637642 -.637642 .770333 550.697 151.311)" width="81.7936"/><path d="m403.66 264.45c-17.744 20.635-44.343 53.108-82.738 53.108-68.127 0-77.442-50.54-151.722-50.54-80.7068 0-49.329 71.691-13.594 85.844" stroke="#051627" stroke-linecap="round" stroke-linejoin="round" stroke-miterlimit="10" stroke-width="1.2"/><path d="m338.905 120.253-2.484 1.081c-3.36 1.461-7.404.953-10.287-1.281l-10.628-8.457c-4.526-3.612-10.623-4.448-16.028-2.096l-11.104 4.83s-.584.255-1.753.763l-11.103 4.83c-5.26 2.288-8.951 7.382-9.393 13.156l-1.059 13.541c-.267 3.779-2.716 6.937-6.076 8.399l-43.245 18.813c-6.866 2.987-9.994 10.975-6.995 17.867l32.41 74.5c2.999 6.893 10.975 10.051 17.841 7.063l123.16-53.578c6.866-2.987 9.994-10.975 6.995-17.868l-32.41-74.5c-2.852-6.956-10.828-10.114-17.841-7.063z" style="fill:#ffe9bc;stroke:#051627;stroke-width:1.2;stroke-miterlimit:10;stroke-linecap:round;stroke-linejoin:round"/><path clip-rule="evenodd" d="m208.229 190.571 31.291 71.928c2.999 6.893 10.975 10.051 17.841 7.063l123.16-53.578c6.454-2.808 9.605-10.035 7.469-16.617l1.119 2.571c2.998 6.893-.129 14.881-6.996 17.868l-123.159 53.578c-6.867 2.987-14.843-.17-17.841-7.063l-32.41-74.5c-.18-.413-.338-.83-.474-1.25z" fill="#051627" fill-rule="evenodd"/><path d="m242.484 161.861 43.284 99.37" stroke="#051627" stroke-linecap="round" stroke-linejoin="round" stroke-miterlimit="10" stroke-width="1.2"/><path d="m236.171 249.989s8.778-5.378 11.617-12.568c0 0 11.146-3.501 14.684-.222 3.901 3.614 8.533 8.168 13.251 5.493 7.759-4.397.107-13.617-7.934-22.836 0 0 6.916-14.281 1.8-19.512-5.117-5.231-10.926-6.088-10.926-6.088s2.935-7.162-.237-14.453-29.041-5.864-30.08-5.605c-1.2.329-11.415 1.002-16.464 7.162l14.044-12.11s11.577-.932 19.079-1.967c8.68-1.197 10.616-10.734 9.124-12.397-1.491-1.664-21.471-3.735-26.062-4.312-2.945-1.031-23.391 8.486-28.701 16.577s-6.364 32.1-5.797 43.993c0 0-8.299 11.943-5.009 21.284 2.715 11.536 18.946 76.447 19.2 103.505-.937 9.914-2.289 16.937-2.289 16.937h59.296s-15.23-37.585-11.593-46.875 16.229-21.773 14.716-36.723l-7.08 3.405c-8.24 3.399-14.63.32-17.802-6.971l-5.357-12.314z" fill="#ffd480"/><path d="m236.171 249.989s8.778-5.378 11.617-12.568m-11.617 12.568 1.48 3.403 5.357 12.314c3.172 7.291 9.562 10.37 17.802 6.971l7.08-3.405c1.513 14.95-11.079 27.433-14.716 36.723s11.593 46.875 11.593 46.875h-59.296s1.352-7.023 2.289-16.937c-.254-27.058-16.485-91.969-19.2-103.505-3.29-9.341 5.009-21.284 5.009-21.284-.567-11.893.487-35.902 5.797-43.993s25.756-17.608 28.701-16.577c4.591.577 24.571 2.648 26.062 4.312 1.492 1.663-.444 11.2-9.124 12.397-7.502 1.035-19.079 1.967-19.079 1.967m10.245 80.739c-1.4 1.641-3.254 2.922-5.086 7.847-2.164 5.819 2.706 16.88 7.182 21.87m-2.096-29.717c-1.143.169-5.497 2.001-9.001-1.472m20.618-11.096s11.146-3.501 14.684-.222c3.901 3.614 8.533 8.168 13.251 5.493 7.759-4.397.107-13.617-7.934-22.836m-20.001 17.565c-.972-.866-3.124-2.928-3.959-4.253m23.96-13.312s6.916-14.281 1.8-19.512c-5.117-5.231-10.926-6.088-10.926-6.088m9.126 25.6c-2.381-.615-9.339-2.161-16.26-1.016m7.134-24.584s2.935-7.162-.237-14.453-29.041-5.864-30.08-5.605c-1.2.329-11.415 1.002-16.464 7.162l14.044-12.11m32.737 25.006c-8.841-2.09-27.528-3.675-30.951-1.611m-1.786-23.395c-.516-.349-1.662-1.575-2.121-3.684m3.907 27.079c-4.278 2.581-26.28 29.395-31.298 32.415-4.502 2.709-4.924 6.102-3.995 8.74m35.293-41.155c-1.904-1.542-2.889-4.359-3.143-5.575m-25.361 61.13c.277-6.429 2.611-7.794 5.159-8.692 2.048-.721 14.5-8.004 27.107-13.814m0 0c3.076-1.418 6.162-2.748 9.108-3.874 3.908-1.493 7.61-2.429 10.947-2.98m-20.055 6.854c2.232-3.572 6.553-11.129 5.973-12.775m0 0c3.318.546 10.967 1.409 15.013.491m-15.013-.491c-1.064-1.274-3.37-4.329-4.085-6.358m19.098 6.849c-.553.929-1.512 3.314-.931 5.43m.931-5.43 3.909-3.208" stroke="#051627" stroke-linecap="round" stroke-linejoin="round" stroke-miterlimit="10" stroke-width="1.2"/><path d="m239.614 155.896c-1.954-1.414-1.659-2.987-1.267-3.597 4.411.489 13.408 1.674 14.104 2.494s.325 2.702.052 3.54c-3.482-.223-10.935-1.022-12.889-2.437z" fill="#d3376c"/><path d="m193.55 211.267 18.497-30.129" stroke="#051627" stroke-linecap="round" stroke-linejoin="round" stroke-miterlimit="10" stroke-width="1.2"/><path d="m231.855 225.172 5.737-12.16c4.255 1.442 11.762.68 14.983.118-1.726 2.506-1.29 4.921-.857 5.816-4.613-.035-15.164 4.136-19.863 6.226z" style="fill:#ffd480;stroke:#051627;stroke-width:1.2;stroke-miterlimit:10;stroke-linecap:round;stroke-linejoin:round"/><circle cx="320.097" cy="184.34" r="46.7061" style="fill:#ffd480;stroke:#051627;stroke-width:1.2;stroke-miterlimit:10;stroke-linecap:round;stroke-linejoin:round" transform="matrix(.91423769 -.40517829 .40517829 .91423769 -47.238308 145.505778)"/><circle cx="320.144" cy="184.446" fill="#d3376c" r="36.7974" transform="matrix(.91423769 -.40517829 .40517829 .91423769 -47.277226 145.533912)"/><circle cx="320.554" cy="185.37" fill="#051627" r="18.6083" transform="matrix(.91423769 -.40517829 .40517829 .91423769 -47.616448 145.77928)"/><circle cx="302.699" cy="177.976" fill="#ffd480" r="7.36515" transform="matrix(.91423769 -.40517829 .40517829 .91423769 -46.151846 137.910695)"/><path d="m268.576 115.872h33.5347v7.0831h-33.5347z" fill="#051627" transform="matrix(.91423769 -.40517829 .40517829 .91423769 -23.915121 118.758614)"/><path d="m276.897 126.753c-2.367 1.049-3.962 3.319-4.146 5.902l-.689 9.67c-.215 3.009 2.852 5.164 5.61 3.942l37.97-16.828c2.758-1.223 3.222-4.942.849-6.804l-7.628-5.985c-2.037-1.598-4.79-1.941-7.157-.892z" fill="#ffd480"/><rect height="41.793" rx="7" style="fill:#ffd480;stroke:#051627;stroke-width:1.2;stroke-miterlimit:10;stroke-linecap:round;stroke-linejoin:round" transform="matrix(.91423769 -.40517829 .40517829 .91423769 -12.456334 105.063683)" width="54.783" x="241.955" y="81.9564"/><rect height="31.1118" rx="7" style="fill:#ffd480;stroke:#051627;stroke-width:1.2;stroke-miterlimit:10;stroke-linecap:round;stroke-linejoin:round" transform="matrix(.91423769 -.40517829 .40517829 .91423769 -12.574268 108.711514)" width="40.7819" x="250.513" y="84.0589"/><path d="m571.845 352.889s6.078-39.271 5.554-57.717c-.524-18.447-3.249-17.294-5.554-21.381-2.306-4.088-13.94-26.412-15.407-34.587s-3.249-21.38-11.319-29.975c-8.07-8.594-13.52-16.35.943-15.93 14.463.314 19.599 14.463 22.848 23.162s6.079 12.472 10.795 10.062c4.821-2.411 10.9-8.49 12.787-14.569 1.886-5.974 12.262-58.901 18.446-68.963 6.183-10.061 9.223-11.11 12.786-8.909 3.669 2.201 2.621 9.957-1.048 19.914-3.668 9.957-7.546 38.779-6.603 44.333.944 5.555 4.612 4.822 6.603.944 1.887-3.878 21.8-48.002 26.202-55.443 4.402-7.442 13.73-7.442 14.359-2.306.629 5.135-19.704 49.155-22.115 56.072-2.41 6.812-6.707 11.109-3.249 12.577 3.459 1.467 27.25-37.941 30.814-42.238 3.563-4.192 8.804-9.118 12.681-2.62 3.878 6.498-10.899 25.783-14.358 33.119-3.459 7.337-17.817 24.106-17.189 28.613.629 4.506 8.071-.524 12.997-3.354 4.925-2.725 22.743-19.599 29.87-21.486 7.127-1.886 6.288 6.394 3.563 9.957-2.725 3.564-41.294 38.045-44.648 44.124-3.354 6.184-16.35 23.162-21.276 29.346-4.926 6.079-3 67.255-3 67.255z" style="fill:#ffd480;stroke:#051627;stroke-width:1.2;stroke-miterlimit:10;stroke-linecap:round;stroke-linejoin:round"/><path d="m577.819 226.942s-8.385 6.288-9.538 11.948" stroke="#051627" stroke-linecap="round" stroke-linejoin="round" stroke-miterlimit="10" stroke-width="1.2"/><path d="m591.339 215.203c.629.42 14.463 9.957 14.882 31.862.315 19.285-8.175 25.573-8.175 25.573" stroke="#051627" stroke-linecap="round" stroke-linejoin="round" stroke-miterlimit="10" stroke-width="1.2"/><path d="m657.892 246.331s-5.765-6.393-6.394-14.149" stroke="#051627" stroke-linecap="round" stroke-linejoin="round" stroke-miterlimit="10" stroke-width="1.2"/><path d="m648.144 224.007s-3.877-2.515-5.974-7.022" stroke="#051627" stroke-linecap="round" stroke-linejoin="round" stroke-miterlimit="10" stroke-width="1.2"/><path d="m629.174 287.94s-10.061 10.481-21.38 1.362c-11.32-9.118-17.084-.104-23.477-4.926" stroke="#051627" stroke-linecap="round" stroke-linejoin="round" stroke-miterlimit="10" stroke-width="1.2"/><path d="m642.615 205.848s7.683 2.918 12.068 10.563l3.969-5.438s-3.254-5.877-12.136-9.925z" fill="#051627"/><path d="m627.217 319.68c-20.65 8.381-42.771 3.212-51.064-.28l-1.08 6.544c17.84 9.15 42.196 4.942 52.144 1.695z" fill="#051627"/><path d="m754.76 270.481c-13.02-6.104-14.067-13.736-20.857-19.491l19.047-22.64c9.647 2.38 13.383 27.85 14.041 27.861.822.015-11.452 14.635-12.231 14.27z" fill="#ffd480"/><path d="m866.214 352.924c-7.728-3.324-37.962-48.201-40.837-64.829-6.776-39.699 1.541-62.378-4.85-72.916s-41.124-36.102-50.926-40.564c-9.756-4.522-48.519 6.837-55.376 10.754-6.858 3.917-6.74 13.158 5.23 16.633s18.543-.564 18.543-.564" fill="#ffd480"/><path d="m866.214 352.924c-7.728-3.324-37.962-48.201-40.837-64.829-6.776-39.699 1.541-62.378-4.85-72.916s-41.124-36.102-50.926-40.564c-9.756-4.522-48.519 6.837-55.376 10.754-6.858 3.917-6.74 13.158 5.23 16.633s18.543-.564 18.543-.564l44.871 90.841 18.242 60.645z" stroke="#051627" stroke-linecap="round" stroke-linejoin="round" stroke-miterlimit="10" stroke-width="1.2"/><path d="m740.145 217.491s-10.129 8.365-14.299 15.56c-4.17 7.194-2.701 12.328 2.526 14.996 5.228 2.669 7.581 1.069 11.773-1.581 4.206-2.544 8.916-6.119 8.916-6.119" fill="#ffd480"/><path d="m740.145 217.491s-10.129 8.365-14.299 15.56c-4.17 7.194-2.701 12.328 2.526 14.996 5.228 2.669 7.581 1.069 11.773-1.581 4.206-2.544 8.916-6.119 8.916-6.119" stroke="#051627" stroke-linecap="round" stroke-linejoin="round" stroke-miterlimit="10" stroke-width="1.2"/><path d="m734.705 249.488s-4.13 3.711-3.945 10.267 6.603 9.021 11.552 7.233c4.95-1.789 5.109-1.007 5.109-1.007" fill="#ffd480"/><path d="m734.705 249.488s-4.13 3.711-3.945 10.267 6.603 9.021 11.552 7.233c4.95-1.789 5.109-1.007 5.109-1.007" stroke="#051627" stroke-linecap="round" stroke-linejoin="round" stroke-miterlimit="10" stroke-width="1.2"/><rect height="141.735" rx="11" style="fill:#ffe9bc;stroke:#051627;stroke-width:1.2;stroke-miterlimit:10;stroke-linecap:round;stroke-linejoin:round" transform="matrix(.98424008 -.17683738 .17683738 .98424008 -6.801468 127.316729)" width="62.6642" x="710.891" y="101.817"/><rect fill="#d3376c" height="29.9745" rx="5" transform="matrix(.98424008 -.17683738 .17683738 .98424008 -7.784589 128.927423)" width="48.0779" x="719.436" y="108.138"/><g mask="url(#b)" stroke="#051627" stroke-linecap="round" stroke-linejoin="round" stroke-miterlimit="10"><path d="m764.435 78.5217 12.795 71.2183"/><path d="m786.181 136.868-71.218 12.796"/><path d="m756.202 80.0008 12.796 71.2182"/><path d="m784.702 128.635-71.218 12.796"/><path d="m747.97 81.4799 12.795 71.2181"/><path d="m783.223 120.403-71.218 12.796"/><path d="m739.737 82.959 12.796 71.218"/><path d="m781.744 112.17-71.218 12.796"/><path d="m731.504 84.4382 12.796 71.2178"/><path d="m780.265 103.938-71.218 12.796"/><path d="m723.272 85.9174 12.796 71.2186"/><path d="m778.786 95.7052-71.219 12.7958"/><path d="m715.039 87.3965 12.796 71.2185"/><path d="m777.307 87.4727-71.219 12.7953"/></g><path d="m725.836 143.76h48.0779v35.234h-48.0779z" style="fill:#ffd480;stroke:#051627;stroke-width:1.2;stroke-miterlimit:10;stroke-linecap:round;stroke-linejoin:round" transform="matrix(.98424008 -.17683738 .17683738 .98424008 -13.983027 130.620582)"/><circle cx="761.258" cy="204.635" fill="#051627" r="14.4268" transform="matrix(.98424008 -.17683738 .17683738 .98424008 -24.189754 137.8439)"/><circle cx="738.587" cy="160.034" fill="#d3376c" r="5.40474" transform="matrix(.98424008 -.17683738 .17683738 .98424008 -16.659923 133.131912)"/><path d="m745.802 153.236 1.545 8.603 1.684-.303-.529-2.944.982-.176 2.455 2.598 2.024-.364-2.723-2.763c1.118-.601 1.562-1.606 1.327-2.915-.296-1.647-1.434-2.694-3.506-2.321zm3.666 3.631-1.235.223-.475-2.642 1.309-.235c.981-.176 1.596.251 1.739 1.051.142.787-.296 1.416-1.338 1.603z" fill="#000"/><path d="m754.332 151.704 1.545 8.602 5.755-1.034-.272-1.514-4.071.731-.361-2.011 3.053-.549-.268-1.49-3.053.548-.372-2.071 3.817-.686-.273-1.515z" fill="#000"/><path d="m767.475 158.31c1.515-.272 2.552-1.184 3.125-2.238l-1.442-.854c-.405.736-1.076 1.319-1.972 1.48-1.539.277-2.812-.683-3.099-2.282-.31-1.72.609-3.011 2.075-3.274.885-.159 1.686.122 2.365.7l1.071-1.28c-1.124-.962-2.492-1.266-3.727-1.044-2.787.501-4.007 2.759-3.566 5.218.51 2.835 2.771 4.005 5.17 3.574z" fill="#000"/><path d="m751.064 248.299c-3.476 16.069-1.792 23.625-.516 25.395 1.644 3.165 8.846 8.997 24.505 7.002 19.574-2.493 15.609-29.596 14.204-31.429-24.904-32.468-27.987-57.779-33.519-63.672-5.531-5.894-18.008-5.349-20.363 8.375-2.355 13.725 20.034 34.243 15.689 54.329z" fill="#ffd480"/><path d="m795.195 251.463s-20.122-12.257-30.677-48.263c-4.651-15.865-12.141-24.248-20.843-20.262-12.123 5.553-8.776 18.473-1.276 34.12 7.493 15.631 8.074 29.841 5.435 44.053 0 22.224 16.348 39.762 33.105 54.181 10.666 9.178 19.536 37.433 19.536 37.433" fill="#ffd480"/><path d="m795.195 251.463s-20.122-12.257-30.677-48.263c-4.651-15.865-12.141-24.248-20.843-20.262-12.123 5.553-8.776 18.473-1.276 34.12 7.493 15.631 8.074 29.841 5.435 44.053 0 22.224 16.348 39.762 33.105 54.181 10.666 9.178 19.536 37.433 19.536 37.433" stroke="#051627" stroke-linecap="round" stroke-linejoin="round" stroke-miterlimit="10" stroke-width="1.2"/><path d="m739.857 196.616c-1.766-4.052.088-8.768 4.14-10.534 4.051-1.766 8.768.088 10.533 4.14l4.594 10.542-14.673 6.394z" fill="#d3376c"/><path d="m799.486 349.398c-1.87-.207-6.318-54.782-8.308-82.044l15.837-2.596c14.02 26.136 42.372 78.773 43.618 80.227 1.558 1.817-48.81 4.673-51.147 4.413z" fill="#ffd480"/><path d="m835.012 309.62c-28.979 29.169-60.954 43.105-66.941 43.105h99.65z" fill="#051627"/></svg>