<?xml version="1.0" encoding="utf-8" standalone="no"?>
<!DOCTYPE svg PUBLIC "-//W3C//DTD SVG 1.1//EN"
  "http://www.w3.org/Graphics/SVG/1.1/DTD/svg11.dtd">
<!-- Created with matplotlib (http://matplotlib.org/) -->
<svg height="576pt" version="1.1" viewBox="0 0 540 576" width="540pt" xmlns="http://www.w3.org/2000/svg" xmlns:xlink="http://www.w3.org/1999/xlink">
 <defs>
  <style type="text/css">
*{stroke-linecap:butt;stroke-linejoin:round;}
  </style>
 </defs>
 <g id="figure_1">
  <g id="patch_1">
   <path d="
M0 576
L540 576
L540 0
L0 0
z
" style="fill:#ffffff;"/>
  </g>
  <g id="axes_1">
   <g id="patch_2">
    <path d="
M55.1053 249.12
L524.213 249.12
L524.213 18.36
L55.1053 18.36
z
" style="fill:#ffffff;"/>
   </g>
   <g id="line2d_1">
    <path clip-path="url(#p613e24783a)" d="
M66.833 166.767
L78.5607 143.068
L90.2884 128.758
L102.016 118.718
L113.744 111.04
L125.472 104.957
L137.199 101.773
L148.927 98.808
L160.655 96.9216
L172.382 94.135
L184.11 92.2948
L195.838 91.9299
L207.565 90.2965
L219.293 88.9932
L231.021 87.9447
L242.749 86.9623
L254.476 87.0228
L266.204 85.5043
L277.932 85.4305
L289.659 85.5913
L301.387 85.7792
L313.115 84.4342
L324.842 83.063
L336.57 83.9393
L348.298 84.5963
L360.026 83.6168
L371.753 82.9135
L383.481 82.8704
L395.209 82.1893
L406.936 83.0825
L418.664 82.8373
L430.392 82.4792
L442.12 82.8068
L453.847 81.9762
L465.575 81.7703
L477.303 80.8574
L489.03 82.0579
L500.758 81.6279
L512.486 81.7602
L524.213 82.2858" style="fill:none;stroke:#000000;stroke-linecap:square;stroke-width:1.5;"/>
   </g>
   <g id="line2d_2">
    <path clip-path="url(#p613e24783a)" d="
M66.833 155.166
L78.5607 180.223
L90.2884 192.969
L102.016 199.629
L113.744 204.228
L125.472 207.241
L137.199 208.399
L148.927 209.926
L160.655 211.301
L172.382 211.066
L184.11 211.903
L195.838 212.524
L207.565 211.889
L219.293 212.65
L231.021 212.487
L242.749 211.878
L254.476 212.631
L266.204 212.102
L277.932 212.844
L289.659 212.956
L301.387 213.032
L313.115 213.052
L324.842 212.294
L336.57 213.087
L348.298 213.445
L360.026 212.751
L371.753 212.688
L383.481 212.647
L395.209 212.867
L406.936 212.952
L418.664 212.798
L430.392 213.063
L442.12 213.278
L453.847 212.916
L465.575 213.101
L477.303 212.493
L489.03 213.031
L500.758 213.455
L512.486 212.967
L524.213 213.59" style="fill:none;stroke:#0000ff;stroke-linecap:square;stroke-width:1.5;"/>
   </g>
   <g id="line2d_3">
    <path clip-path="url(#p613e24783a)" d="
M66.833 194.113
L78.5607 194.051
L90.2884 195.069
L102.016 194.857
L113.744 195.746
L125.472 196.427
L137.199 197.337
L148.927 198.642
L160.655 200.348
L172.382 200.123
L184.11 201.377
L195.838 202.392
L207.565 201.77
L219.293 203.17
L231.021 203.435
L242.749 202.648
L254.476 204.228
L266.204 203.818
L277.932 205.231
L289.659 204.989
L301.387 205.48
L313.115 205.828
L324.842 205.683
L336.57 206.517
L348.298 206.517
L360.026 206.162
L371.753 206.402
L383.481 206.54
L395.209 207.355
L406.936 206.584
L418.664 206.397
L430.392 207.269
L442.12 207.125
L453.847 207.581
L465.575 207.88
L477.303 207.429
L489.03 207.444
L500.758 208.575
L512.486 207.517
L524.213 207.907" style="fill:none;stroke:#ff0000;stroke-linecap:square;stroke-width:1.5;"/>
   </g>
   <g id="line2d_4">
    <path clip-path="url(#p613e24783a)" d="
M66.833 193.497
L78.5607 193.499
L90.2884 193.693
L102.016 193.432
L113.744 194.386
L125.472 194.6
L137.199 195.228
L148.927 196.406
L160.655 198.047
L172.382 197.408
L184.11 198.595
L195.838 199.447
L207.565 199.204
L219.293 200.212
L231.021 200.106
L242.749 199.385
L254.476 201.362
L266.204 200.431
L277.932 202.192
L289.659 201.177
L301.387 201.936
L313.115 202.312
L324.842 202.084
L336.57 202.901
L348.298 203.098
L360.026 202.876
L371.753 202.778
L383.481 203.229
L395.209 203.728
L406.936 203.395
L418.664 202.602
L430.392 203.7
L442.12 203.573
L453.847 203.988
L465.575 204.003
L477.303 203.661
L489.03 203.975
L500.758 204.816
L512.486 203.712
L524.213 204.257" style="fill:none;stroke:#bf00bf;stroke-linecap:square;stroke-width:1.5;"/>
   </g>
   <g id="line2d_5">
    <path clip-path="url(#p613e24783a)" d="
M66.833 139.188
L78.5607 133.397
L90.2884 135.238
L102.016 138.858
L113.744 144.611
L125.472 150.158
L137.199 154.01
L148.927 159.013
L160.655 162.763
L172.382 166.786
L184.11 170.902
L195.838 173.15
L207.565 176.33
L219.293 179.827
L231.021 182.301
L242.749 184.742
L254.476 186.869
L266.204 189.188
L277.932 191.337
L289.659 192.699
L301.387 194.262
L313.115 196.537
L324.842 198.453
L336.57 199.513
L348.298 200.255
L360.026 201.933
L371.753 203.188
L383.481 204.548
L395.209 205.955
L406.936 206.414
L418.664 207.561
L430.392 208.564
L442.12 209.485
L453.847 210.614
L465.575 211.579
L477.303 212.457
L489.03 212.819
L500.758 213.624
L512.486 214.387
L524.213 214.9" style="fill:none;stroke:#008000;stroke-linecap:square;stroke-width:1.5;"/>
   </g>
   <g id="line2d_6">
    <path clip-path="url(#p613e24783a)" d="
M66.833 191.617
L78.5607 187.645
L90.2884 185.915
L102.016 183.901
L113.744 182.838
L125.472 181.94
L137.199 182.457
L148.927 182.993
L160.655 184.094
L172.382 183.408
L184.11 183.858
L195.838 185.103
L207.565 184.495
L219.293 185.104
L231.021 185.246
L242.749 184.81
L254.476 186.189
L266.204 185.395
L277.932 186.461
L289.659 187.085
L301.387 187.981
L313.115 187.357
L324.842 186.55
L336.57 187.987
L348.298 188.986
L360.026 188.262
L371.753 188.034
L383.481 188.378
L395.209 188.451
L406.936 189.197
L418.664 189.17
L430.392 189.413
L442.12 189.981
L453.847 189.515
L465.575 189.704
L477.303 188.859
L489.03 190.193
L500.758 190.368
L512.486 190.272
L524.213 191.087" style="fill:none;stroke:#000000;stroke-dasharray:6.000000,6.000000;stroke-dashoffset:0.0;stroke-width:1.5;"/>
   </g>
   <g id="line2d_7">
    <path clip-path="url(#p613e24783a)" d="
M66.833 35.3186
L78.5607 142.562
L90.2884 195.042
L102.016 214.791
L113.744 207.836
L125.472 193.182
L137.199 180.795
L148.927 169.848
L160.655 161.042
L172.382 152.767
L184.11 145.984
L195.838 141.111
L207.565 136.226
L219.293 131.158
L231.021 127.047
L242.749 123.887
L254.476 121.11
L266.204 118.023
L277.932 115.749
L289.659 113.977
L301.387 111.991
L313.115 109.852
L324.842 107.423
L336.57 106.561
L348.298 105.656
L360.026 103.864
L371.753 102.437
L383.481 101.2
L395.209 99.8813
L406.936 99.4643
L418.664 98.4129
L430.392 97.4717
L442.12 96.6919
L453.847 95.591
L465.575 94.8179
L477.303 93.7792
L489.03 93.7181
L500.758 92.9773
L512.486 92.3929
L524.213 92.1571" style="fill:none;stroke:#0000ff;stroke-dasharray:6.000000,6.000000;stroke-dashoffset:0.0;stroke-width:1.5;"/>
   </g>
   <g id="line2d_8">
    <path clip-path="url(#p613e24783a)" d="
M66.833 194.568
L78.5607 195.819
L90.2884 197.688
L102.016 198.111
L113.744 199.57
L125.472 201.008
L137.199 201.904
L148.927 203.55
L160.655 205.448
L172.382 205.559
L184.11 206.961
L195.838 208.202
L207.565 207.889
L219.293 209.549
L231.021 210.087
L242.749 210.055
L254.476 211.415
L266.204 211.394
L277.932 212.713
L289.659 213.3
L301.387 213.831
L313.115 214.248
L324.842 214.094
L336.57 215.209
L348.298 215.8
L360.026 215.374
L371.753 215.785
L383.481 216.01
L395.209 216.512
L406.936 216.839
L418.664 217.064
L430.392 217.311
L442.12 217.838
L453.847 217.618
L465.575 218.049
L477.303 217.683
L489.03 218.267
L500.758 218.693
L512.486 218.428
L524.213 219.259" style="fill:none;stroke:#ff0000;stroke-dasharray:6.000000,6.000000;stroke-dashoffset:0.0;stroke-width:1.5;"/>
   </g>
   <g id="matplotlib.axis_1">
    <g id="xtick_1">
     <g id="line2d_9">
      <path clip-path="url(#p613e24783a)" d="
M55.1053 249.12
L55.1053 18.36" style="fill:none;stroke:#000000;stroke-dasharray:1.000000,3.000000;stroke-dashoffset:0.0;stroke-width:0.5;"/>
     </g>
     <g id="line2d_10">
      <defs>
       <path d="
M0 0
L0 -4" id="m93b0483c22" style="stroke:#000000;stroke-width:0.5;"/>
      </defs>
      <g>
       <use style="stroke:#000000;stroke-width:0.5;" x="55.1053125" xlink:href="#m93b0483c22" y="249.12"/>
      </g>
     </g>
     <g id="line2d_11">
      <defs>
       <path d="
M0 0
L0 4" id="m741efc42ff" style="stroke:#000000;stroke-width:0.5;"/>
      </defs>
      <g>
       <use style="stroke:#000000;stroke-width:0.5;" x="55.1053125" xlink:href="#m741efc42ff" y="18.36"/>
      </g>
     </g>
     <g id="text_1">
      <!-- 0 -->
      <defs>
       <path d="
M4.15625 35.2969
Q4.15625 48 6.76562 55.7344
Q9.375 63.4844 14.5156 67.6719
Q19.6719 71.875 27.4844 71.875
Q33.25 71.875 37.5938 69.5469
Q41.9375 67.2344 44.7656 62.8594
Q47.6094 58.5 49.2188 52.2188
Q50.8281 45.9531 50.8281 35.2969
Q50.8281 22.7031 48.2344 14.9688
Q45.6562 7.23438 40.5 3
Q35.3594 -1.21875 27.4844 -1.21875
Q17.1406 -1.21875 11.2344 6.20312
Q4.15625 15.1406 4.15625 35.2969
M13.1875 35.2969
Q13.1875 17.6719 17.3125 11.8281
Q21.4375 6 27.4844 6
Q33.5469 6 37.6719 11.8594
Q41.7969 17.7188 41.7969 35.2969
Q41.7969 52.9844 37.6719 58.7812
Q33.5469 64.5938 27.3906 64.5938
Q21.3438 64.5938 17.7188 59.4688
Q13.1875 52.9375 13.1875 35.2969" id="ArialMT-30"/>
      </defs>
      <g transform="translate(52.305 261.709375)scale(0.12 -0.12)">
       <use xlink:href="#ArialMT-30"/>
      </g>
     </g>
    </g>
    <g id="xtick_2">
     <g id="line2d_12">
      <path clip-path="url(#p613e24783a)" d="
M148.927 249.12
L148.927 18.36" style="fill:none;stroke:#000000;stroke-dasharray:1.000000,3.000000;stroke-dashoffset:0.0;stroke-width:0.5;"/>
     </g>
     <g id="line2d_13">
      <g>
       <use style="stroke:#000000;stroke-width:0.5;" x="148.9269375" xlink:href="#m93b0483c22" y="249.12"/>
      </g>
     </g>
     <g id="line2d_14">
      <g>
       <use style="stroke:#000000;stroke-width:0.5;" x="148.9269375" xlink:href="#m741efc42ff" y="18.36"/>
      </g>
     </g>
     <g id="text_2">
      <!-- 1 -->
      <defs>
       <path d="
M37.25 0
L28.4688 0
L28.4688 56
Q25.2969 52.9844 20.1406 49.9531
Q14.9844 46.9219 10.8906 45.4062
L10.8906 53.9062
Q18.2656 57.375 23.7812 62.2969
Q29.2969 67.2344 31.5938 71.875
L37.25 71.875
z
" id="ArialMT-31"/>
      </defs>
      <g transform="translate(147.345375 261.709375)scale(0.12 -0.12)">
       <use xlink:href="#ArialMT-31"/>
      </g>
     </g>
    </g>
    <g id="xtick_3">
     <g id="line2d_15">
      <path clip-path="url(#p613e24783a)" d="
M242.749 249.12
L242.749 18.36" style="fill:none;stroke:#000000;stroke-dasharray:1.000000,3.000000;stroke-dashoffset:0.0;stroke-width:0.5;"/>
     </g>
     <g id="line2d_16">
      <g>
       <use style="stroke:#000000;stroke-width:0.5;" x="242.7485625" xlink:href="#m93b0483c22" y="249.12"/>
      </g>
     </g>
     <g id="line2d_17">
      <g>
       <use style="stroke:#000000;stroke-width:0.5;" x="242.7485625" xlink:href="#m741efc42ff" y="18.36"/>
      </g>
     </g>
     <g id="text_3">
      <!-- 2 -->
      <defs>
       <path d="
M50.3438 8.45312
L50.3438 0
L3.03125 0
Q2.9375 3.17188 4.04688 6.10938
Q5.85938 10.9375 9.82812 15.625
Q13.8125 20.3125 21.3438 26.4688
Q33.0156 36.0312 37.1094 41.625
Q41.2188 47.2188 41.2188 52.2031
Q41.2188 57.4219 37.4688 61
Q33.7344 64.5938 27.7344 64.5938
Q21.3906 64.5938 17.5781 60.7812
Q13.7656 56.9844 13.7188 50.25
L4.6875 51.1719
Q5.60938 61.2812 11.6562 66.5781
Q17.7188 71.875 27.9375 71.875
Q38.2344 71.875 44.2344 66.1562
Q50.25 60.4531 50.25 52
Q50.25 47.7031 48.4844 43.5469
Q46.7344 39.4062 42.6562 34.8125
Q38.5781 30.2188 29.1094 22.2188
Q21.1875 15.5781 18.9375 13.2031
Q16.7031 10.8438 15.2344 8.45312
z
" id="ArialMT-32"/>
      </defs>
      <g transform="translate(239.9041875 261.709375)scale(0.12 -0.12)">
       <use xlink:href="#ArialMT-32"/>
      </g>
     </g>
    </g>
    <g id="xtick_4">
     <g id="line2d_18">
      <path clip-path="url(#p613e24783a)" d="
M336.57 249.12
L336.57 18.36" style="fill:none;stroke:#000000;stroke-dasharray:1.000000,3.000000;stroke-dashoffset:0.0;stroke-width:0.5;"/>
     </g>
     <g id="line2d_19">
      <g>
       <use style="stroke:#000000;stroke-width:0.5;" x="336.5701875" xlink:href="#m93b0483c22" y="249.12"/>
      </g>
     </g>
     <g id="line2d_20">
      <g>
       <use style="stroke:#000000;stroke-width:0.5;" x="336.5701875" xlink:href="#m741efc42ff" y="18.36"/>
      </g>
     </g>
     <g id="text_4">
      <!-- 3 -->
      <defs>
       <path d="
M4.20312 18.8906
L12.9844 20.0625
Q14.5 12.5938 18.1406 9.29688
Q21.7812 6 27 6
Q33.2031 6 37.4688 10.2969
Q41.75 14.5938 41.75 20.9531
Q41.75 27 37.7969 30.9219
Q33.8438 34.8594 27.7344 34.8594
Q25.25 34.8594 21.5312 33.8906
L22.5156 41.6094
Q23.3906 41.5 23.9219 41.5
Q29.5469 41.5 34.0312 44.4219
Q38.5312 47.3594 38.5312 53.4688
Q38.5312 58.2969 35.25 61.4688
Q31.9844 64.6562 26.8125 64.6562
Q21.6875 64.6562 18.2656 61.4219
Q14.8438 58.2031 13.875 51.7656
L5.07812 53.3281
Q6.6875 62.1562 12.3906 67.0156
Q18.1094 71.875 26.6094 71.875
Q32.4688 71.875 37.3906 69.3594
Q42.3281 66.8438 44.9375 62.5
Q47.5625 58.1562 47.5625 53.2656
Q47.5625 48.6406 45.0625 44.8281
Q42.5781 41.0156 37.7031 38.7656
Q44.0469 37.3125 47.5625 32.6875
Q51.0781 28.0781 51.0781 21.1406
Q51.0781 11.7656 44.2344 5.25
Q37.4062 -1.26562 26.9531 -1.26562
Q17.5312 -1.26562 11.2969 4.34375
Q5.07812 9.96875 4.20312 18.8906" id="ArialMT-33"/>
      </defs>
      <g transform="translate(333.7576875 261.709375)scale(0.12 -0.12)">
       <use xlink:href="#ArialMT-33"/>
      </g>
     </g>
    </g>
    <g id="xtick_5">
     <g id="line2d_21">
      <path clip-path="url(#p613e24783a)" d="
M430.392 249.12
L430.392 18.36" style="fill:none;stroke:#000000;stroke-dasharray:1.000000,3.000000;stroke-dashoffset:0.0;stroke-width:0.5;"/>
     </g>
     <g id="line2d_22">
      <g>
       <use style="stroke:#000000;stroke-width:0.5;" x="430.3918125" xlink:href="#m93b0483c22" y="249.12"/>
      </g>
     </g>
     <g id="line2d_23">
      <g>
       <use style="stroke:#000000;stroke-width:0.5;" x="430.3918125" xlink:href="#m741efc42ff" y="18.36"/>
      </g>
     </g>
     <g id="text_5">
      <!-- 4 -->
      <defs>
       <path d="
M32.3281 0
L32.3281 17.1406
L1.26562 17.1406
L1.26562 25.2031
L33.9375 71.5781
L41.1094 71.5781
L41.1094 25.2031
L50.7812 25.2031
L50.7812 17.1406
L41.1094 17.1406
L41.1094 0
z

M32.3281 25.2031
L32.3281 57.4688
L9.90625 25.2031
z
" id="ArialMT-34"/>
      </defs>
      <g transform="translate(427.420875 261.709375)scale(0.12 -0.12)">
       <use xlink:href="#ArialMT-34"/>
      </g>
     </g>
    </g>
    <g id="xtick_6">
     <g id="line2d_24">
      <path clip-path="url(#p613e24783a)" d="
M524.213 249.12
L524.213 18.36" style="fill:none;stroke:#000000;stroke-dasharray:1.000000,3.000000;stroke-dashoffset:0.0;stroke-width:0.5;"/>
     </g>
     <g id="line2d_25">
      <g>
       <use style="stroke:#000000;stroke-width:0.5;" x="524.2134375" xlink:href="#m93b0483c22" y="249.12"/>
      </g>
     </g>
     <g id="line2d_26">
      <g>
       <use style="stroke:#000000;stroke-width:0.5;" x="524.2134375" xlink:href="#m741efc42ff" y="18.36"/>
      </g>
     </g>
     <g id="text_6">
      <!-- 5 -->
      <defs>
       <path d="
M4.15625 18.75
L13.375 19.5312
Q14.4062 12.7969 18.1406 9.39062
Q21.875 6 27.1562 6
Q33.5 6 37.8906 10.7812
Q42.2812 15.5781 42.2812 23.4844
Q42.2812 31 38.0625 35.3438
Q33.8438 39.7031 27 39.7031
Q22.75 39.7031 19.3281 37.7656
Q15.9219 35.8438 13.9688 32.7656
L5.71875 33.8438
L12.6406 70.6094
L48.25 70.6094
L48.25 62.2031
L19.6719 62.2031
L15.8281 42.9688
Q22.2656 47.4688 29.3438 47.4688
Q38.7188 47.4688 45.1562 40.9688
Q51.6094 34.4688 51.6094 24.2656
Q51.6094 14.5469 45.9531 7.46875
Q39.0625 -1.21875 27.1562 -1.21875
Q17.3906 -1.21875 11.2031 4.25
Q5.03125 9.71875 4.15625 18.75" id="ArialMT-35"/>
      </defs>
      <g transform="translate(521.36625 261.709375)scale(0.12 -0.12)">
       <use xlink:href="#ArialMT-35"/>
      </g>
     </g>
    </g>
    <g id="text_7">
     <!-- Dirichlet symmetric prior $\alpha$ -->
     <defs>
      <path d="
M40.4375 19
L49.0781 17.875
Q47.6562 8.9375 41.8125 3.875
Q35.9844 -1.17188 27.4844 -1.17188
Q16.8438 -1.17188 10.375 5.78125
Q3.90625 12.75 3.90625 25.7344
Q3.90625 34.125 6.6875 40.4219
Q9.46875 46.7344 15.1562 49.875
Q20.8438 53.0312 27.5469 53.0312
Q35.9844 53.0312 41.3594 48.75
Q46.7344 44.4844 48.25 36.625
L39.7031 35.2969
Q38.4844 40.5312 35.375 43.1562
Q32.2812 45.7969 27.875 45.7969
Q21.2344 45.7969 17.0781 41.0312
Q12.9375 36.2812 12.9375 25.9844
Q12.9375 15.5312 16.9375 10.7969
Q20.9531 6.0625 27.3906 6.0625
Q32.5625 6.0625 36.0312 9.23438
Q39.5 12.4062 40.4375 19" id="ArialMT-63"/>
      <path d="
M20.125 -1.125
Q15.375 -1.125 11.6875 1.125
Q8.01562 3.375 6 7.17188
Q4 10.9844 4 15.8281
Q4 22.6094 7.78125 29.25
Q11.5781 35.8906 17.8438 40.0312
Q24.125 44.1875 31 44.1875
Q36.0781 44.1875 39.9375 41.5312
Q43.7969 38.875 45.7969 34.4531
Q47.7969 30.0312 47.7969 25
L47.9062 18.3125
Q51.3125 23.0469 53.6875 28.1406
Q56.0625 33.25 57.3281 38.7188
Q57.5156 39.3125 58.1094 39.3125
L59.2812 39.3125
Q60.2031 39.3125 60.2031 38.375
Q60.2031 38.2812 60.1094 38.0938
Q58.9375 33.5 57.1719 29.2656
Q55.4219 25.0469 53.0469 21.0938
Q50.6875 17.1406 47.9062 13.9219
Q47.9062 1.51562 50.7812 1.51562
Q52.6406 1.51562 53.8281 2.60938
Q55.0312 3.71875 55.9375 5.32812
Q56.8438 6.9375 57.0781 6.98438
L58.2969 6.98438
Q59.0781 6.98438 59.0781 6
Q59.0781 3.51562 56.2188 1.1875
Q53.375 -1.125 50.5938 -1.125
Q46.9688 -1.125 44.5781 1.21875
Q42.1875 3.5625 41.3125 7.32812
Q36.625 3.32812 31.1562 1.09375
Q25.6875 -1.125 20.125 -1.125
M20.3125 1.51562
Q31 1.51562 40.8281 10.2969
Q40.7656 10.8906 40.6719 11.7344
Q40.5781 12.5938 40.5781 12.7031
L40.5781 23.4844
Q40.5781 41.6094 30.8125 41.6094
Q24.9531 41.6094 20.5469 36.5938
Q16.1562 31.5938 13.9375 24.625
Q11.7188 17.6719 11.7188 11.9219
Q11.7188 7.5625 13.9375 4.53125
Q16.1562 1.51562 20.3125 1.51562" id="Cmmi10-ae"/>
      <path d="
M6.20312 -19.9688
L5.21875 -11.7188
Q8.10938 -12.5 10.25 -12.5
Q13.1875 -12.5 14.9375 -11.5156
Q16.7031 -10.5469 17.8281 -8.79688
Q18.6562 -7.46875 20.5156 -2.25
Q20.75 -1.51562 21.2969 -0.09375
L1.60938 51.8594
L11.0781 51.8594
L21.875 21.8281
Q23.9688 16.1094 25.6406 9.8125
Q27.1562 15.875 29.25 21.625
L40.3281 51.8594
L49.125 51.8594
L29.3906 -0.875
Q26.2188 -9.42188 24.4688 -12.6406
Q22.125 -17 19.0938 -19.0156
Q16.0625 -21.0469 11.8594 -21.0469
Q9.32812 -21.0469 6.20312 -19.9688" id="ArialMT-79"/>
      <path d="
M42.0938 16.7031
L51.1719 15.5781
Q49.0312 7.625 43.2188 3.21875
Q37.4062 -1.17188 28.375 -1.17188
Q17 -1.17188 10.3281 5.82812
Q3.65625 12.8438 3.65625 25.4844
Q3.65625 38.5781 10.3906 45.7969
Q17.1406 53.0312 27.875 53.0312
Q38.2812 53.0312 44.875 45.9531
Q51.4688 38.875 51.4688 26.0312
Q51.4688 25.25 51.4219 23.6875
L12.75 23.6875
Q13.2344 15.1406 17.5781 10.5938
Q21.9219 6.0625 28.4219 6.0625
Q33.25 6.0625 36.6719 8.59375
Q40.0938 11.1406 42.0938 16.7031
M13.2344 30.9062
L42.1875 30.9062
Q41.6094 37.4531 38.875 40.7188
Q34.6719 45.7969 27.9844 45.7969
Q21.9219 45.7969 17.7969 41.75
Q13.6719 37.7031 13.2344 30.9062" id="ArialMT-65"/>
      <path d="
M25.7812 7.85938
L27.0469 0.09375
Q23.3438 -0.6875 20.4062 -0.6875
Q15.625 -0.6875 12.9844 0.828125
Q10.3594 2.34375 9.28125 4.8125
Q8.20312 7.28125 8.20312 15.1875
L8.20312 45.0156
L1.76562 45.0156
L1.76562 51.8594
L8.20312 51.8594
L8.20312 64.7031
L16.9375 69.9688
L16.9375 51.8594
L25.7812 51.8594
L25.7812 45.0156
L16.9375 45.0156
L16.9375 14.7031
Q16.9375 10.9375 17.4062 9.85938
Q17.875 8.79688 18.9219 8.15625
Q19.9688 7.51562 21.9219 7.51562
Q23.3906 7.51562 25.7812 7.85938" id="ArialMT-74"/>
      <path d="
M6.64062 61.4688
L6.64062 71.5781
L15.4375 71.5781
L15.4375 61.4688
z

M6.64062 0
L6.64062 51.8594
L15.4375 51.8594
L15.4375 0
z
" id="ArialMT-69"/>
      <path d="
M6.59375 0
L6.59375 71.5781
L15.375 71.5781
L15.375 45.9062
Q21.5312 53.0312 30.9062 53.0312
Q36.6719 53.0312 40.9219 50.75
Q45.1719 48.4844 47 44.4844
Q48.8281 40.4844 48.8281 32.8594
L48.8281 0
L40.0469 0
L40.0469 32.8594
Q40.0469 39.4531 37.1875 42.4531
Q34.3281 45.4531 29.1094 45.4531
Q25.2031 45.4531 21.75 43.4219
Q18.3125 41.4062 16.8438 37.9375
Q15.375 34.4688 15.375 28.375
L15.375 0
z
" id="ArialMT-68"/>
      <path d="
M6.59375 -19.875
L6.59375 51.8594
L14.5938 51.8594
L14.5938 45.125
Q17.4375 49.0781 21 51.0469
Q24.5625 53.0312 29.6406 53.0312
Q36.2812 53.0312 41.3594 49.6094
Q46.4375 46.1875 49.0156 39.9531
Q51.6094 33.7344 51.6094 26.3125
Q51.6094 18.3594 48.75 11.9844
Q45.9062 5.60938 40.4531 2.21875
Q35.0156 -1.17188 29 -1.17188
Q24.6094 -1.17188 21.1094 0.6875
Q17.625 2.54688 15.375 5.375
L15.375 -19.875
z

M14.5469 25.6406
Q14.5469 15.625 18.5938 10.8438
Q22.6562 6.0625 28.4219 6.0625
Q34.2812 6.0625 38.4531 11.0156
Q42.625 15.9688 42.625 26.375
Q42.625 36.2812 38.5469 41.2031
Q34.4688 46.1406 28.8125 46.1406
Q23.1875 46.1406 18.8594 40.8906
Q14.5469 35.6406 14.5469 25.6406" id="ArialMT-70"/>
      <path d="
M7.71875 0
L7.71875 71.5781
L32.375 71.5781
Q40.7188 71.5781 45.125 70.5625
Q51.2656 69.1406 55.6094 65.4375
Q61.2812 60.6406 64.0781 53.1875
Q66.8906 45.75 66.8906 36.1875
Q66.8906 28.0312 64.9844 21.7344
Q63.0938 15.4375 60.1094 11.2969
Q57.125 7.17188 53.5781 4.79688
Q50.0469 2.4375 45.0469 1.21875
Q40.0469 0 33.5469 0
z

M17.1875 8.45312
L32.4688 8.45312
Q39.5469 8.45312 43.5781 9.76562
Q47.6094 11.0781 50 13.4844
Q53.375 16.8438 55.25 22.5312
Q57.125 28.2188 57.125 36.3281
Q57.125 47.5625 53.4375 53.5938
Q49.75 59.625 44.4844 61.6719
Q40.6719 63.1406 32.2344 63.1406
L17.1875 63.1406
z
" id="ArialMT-44"/>
      <path d="
M6.5 0
L6.5 51.8594
L14.4062 51.8594
L14.4062 44
Q17.4375 49.5156 20 51.2656
Q22.5625 53.0312 25.6406 53.0312
Q30.0781 53.0312 34.6719 50.2031
L31.6406 42.0469
Q28.4219 43.9531 25.2031 43.9531
Q22.3125 43.9531 20.0156 42.2188
Q17.7188 40.4844 16.75 37.4062
Q15.2812 32.7188 15.2812 27.1562
L15.2812 0
z
" id="ArialMT-72"/>
      <path d="
M3.07812 15.4844
L11.7656 16.8438
Q12.5 11.625 15.8438 8.84375
Q19.1875 6.0625 25.2031 6.0625
Q31.25 6.0625 34.1719 8.51562
Q37.1094 10.9844 37.1094 14.3125
Q37.1094 17.2812 34.5156 19
Q32.7188 20.1719 25.5312 21.9688
Q15.875 24.4219 12.1406 26.2031
Q8.40625 27.9844 6.46875 31.125
Q4.54688 34.2812 4.54688 38.0938
Q4.54688 41.5469 6.125 44.5
Q7.71875 47.4688 10.4531 49.4219
Q12.5 50.9219 16.0312 51.9688
Q19.5781 53.0312 23.6406 53.0312
Q29.7344 53.0312 34.3438 51.2656
Q38.9688 49.5156 41.1562 46.5
Q43.3594 43.5 44.1875 38.4844
L35.5938 37.3125
Q35.0156 41.3125 32.2031 43.5469
Q29.3906 45.7969 24.2656 45.7969
Q18.2188 45.7969 15.625 43.7969
Q13.0312 41.7969 13.0312 39.1094
Q13.0312 37.4062 14.1094 36.0312
Q15.1875 34.625 17.4844 33.6875
Q18.7969 33.2031 25.25 31.4531
Q34.5781 28.9531 38.25 27.3594
Q41.9375 25.7812 44.0312 22.75
Q46.1406 19.7344 46.1406 15.2344
Q46.1406 10.8438 43.5781 6.95312
Q41.0156 3.07812 36.1719 0.953125
Q31.3438 -1.17188 25.25 -1.17188
Q15.1406 -1.17188 9.84375 3.03125
Q4.54688 7.23438 3.07812 15.4844" id="ArialMT-73"/>
      <path d="
M6.39062 0
L6.39062 71.5781
L15.1875 71.5781
L15.1875 0
z
" id="ArialMT-6c"/>
      <path d="
M3.32812 25.9219
Q3.32812 40.3281 11.3281 47.2656
Q18.0156 53.0312 27.6406 53.0312
Q38.3281 53.0312 45.1094 46.0156
Q51.9062 39.0156 51.9062 26.6562
Q51.9062 16.6562 48.9062 10.9062
Q45.9062 5.17188 40.1562 2
Q34.4219 -1.17188 27.6406 -1.17188
Q16.75 -1.17188 10.0312 5.8125
Q3.32812 12.7969 3.32812 25.9219
M12.3594 25.9219
Q12.3594 15.9688 16.7031 11.0156
Q21.0469 6.0625 27.6406 6.0625
Q34.1875 6.0625 38.5312 11.0312
Q42.875 16.0156 42.875 26.2188
Q42.875 35.8438 38.5 40.7969
Q34.125 45.75 27.6406 45.75
Q21.0469 45.75 16.7031 40.8125
Q12.3594 35.8906 12.3594 25.9219" id="ArialMT-6f"/>
      <path d="
M6.59375 0
L6.59375 51.8594
L14.4531 51.8594
L14.4531 44.5781
Q16.8906 48.3906 20.9375 50.7031
Q25 53.0312 30.1719 53.0312
Q35.9375 53.0312 39.625 50.6406
Q43.3125 48.25 44.8281 43.9531
Q50.9844 53.0312 60.8438 53.0312
Q68.5625 53.0312 72.7031 48.75
Q76.8594 44.4844 76.8594 35.5938
L76.8594 0
L68.1094 0
L68.1094 32.6719
Q68.1094 37.9375 67.25 40.25
Q66.4062 42.5781 64.1562 43.9844
Q61.9219 45.4062 58.8906 45.4062
Q53.4219 45.4062 49.7969 41.7656
Q46.1875 38.1406 46.1875 30.125
L46.1875 0
L37.4062 0
L37.4062 33.6875
Q37.4062 39.5469 35.25 42.4688
Q33.1094 45.4062 28.2188 45.4062
Q24.5156 45.4062 21.3594 43.4531
Q18.2188 41.5 16.7969 37.7344
Q15.375 33.9844 15.375 26.9062
L15.375 0
z
" id="ArialMT-6d"/>
      <path id="ArialMT-20"/>
     </defs>
     <g transform="translate(219.759375 277.734375)scale(0.12 -0.12)">
      <use transform="translate(0.0 0.421875)" xlink:href="#ArialMT-44"/>
      <use transform="translate(72.216796875 0.421875)" xlink:href="#ArialMT-69"/>
      <use transform="translate(94.43359375 0.421875)" xlink:href="#ArialMT-72"/>
      <use transform="translate(127.734375 0.421875)" xlink:href="#ArialMT-69"/>
      <use transform="translate(149.951171875 0.421875)" xlink:href="#ArialMT-63"/>
      <use transform="translate(199.951171875 0.421875)" xlink:href="#ArialMT-68"/>
      <use transform="translate(255.56640625 0.421875)" xlink:href="#ArialMT-6c"/>
      <use transform="translate(277.783203125 0.421875)" xlink:href="#ArialMT-65"/>
      <use transform="translate(333.3984375 0.421875)" xlink:href="#ArialMT-74"/>
      <use transform="translate(361.181640625 0.421875)" xlink:href="#ArialMT-20"/>
      <use transform="translate(388.96484375 0.421875)" xlink:href="#ArialMT-73"/>
      <use transform="translate(438.96484375 0.421875)" xlink:href="#ArialMT-79"/>
      <use transform="translate(488.96484375 0.421875)" xlink:href="#ArialMT-6d"/>
      <use transform="translate(572.265625 0.421875)" xlink:href="#ArialMT-6d"/>
      <use transform="translate(655.56640625 0.421875)" xlink:href="#ArialMT-65"/>
      <use transform="translate(711.181640625 0.421875)" xlink:href="#ArialMT-74"/>
      <use transform="translate(738.96484375 0.421875)" xlink:href="#ArialMT-72"/>
      <use transform="translate(772.265625 0.421875)" xlink:href="#ArialMT-69"/>
      <use transform="translate(794.482421875 0.421875)" xlink:href="#ArialMT-63"/>
      <use transform="translate(844.482421875 0.421875)" xlink:href="#ArialMT-20"/>
      <use transform="translate(872.265625 0.421875)" xlink:href="#ArialMT-70"/>
      <use transform="translate(927.880859375 0.421875)" xlink:href="#ArialMT-72"/>
      <use transform="translate(961.181640625 0.421875)" xlink:href="#ArialMT-69"/>
      <use transform="translate(983.3984375 0.421875)" xlink:href="#ArialMT-6f"/>
      <use transform="translate(1039.01367188 0.421875)" xlink:href="#ArialMT-72"/>
      <use transform="translate(1072.31445312 0.421875)" xlink:href="#ArialMT-20"/>
      <use transform="translate(1100.09765625 0.421875)" xlink:href="#Cmmi10-ae"/>
     </g>
    </g>
   </g>
   <g id="matplotlib.axis_2">
    <g id="ytick_1">
     <g id="line2d_27">
      <path clip-path="url(#p613e24783a)" d="
M55.1053 249.12
L524.213 249.12" style="fill:none;stroke:#000000;stroke-dasharray:1.000000,3.000000;stroke-dashoffset:0.0;stroke-width:0.5;"/>
     </g>
     <g id="line2d_28">
      <defs>
       <path d="
M0 0
L4 0" id="m728421d6d4" style="stroke:#000000;stroke-width:0.5;"/>
      </defs>
      <g>
       <use style="stroke:#000000;stroke-width:0.5;" x="55.1053125" xlink:href="#m728421d6d4" y="249.12"/>
      </g>
     </g>
     <g id="line2d_29">
      <defs>
       <path d="
M0 0
L-4 0" id="mcb0005524f" style="stroke:#000000;stroke-width:0.5;"/>
      </defs>
      <g>
       <use style="stroke:#000000;stroke-width:0.5;" x="524.2134375" xlink:href="#mcb0005524f" y="249.12"/>
      </g>
     </g>
     <g id="text_8">
      <!-- 0.0 -->
      <defs>
       <path d="
M9.07812 0
L9.07812 10.0156
L19.0938 10.0156
L19.0938 0
z
" id="ArialMT-2e"/>
      </defs>
      <g transform="translate(35.4978125 252.2221875)scale(0.12 -0.12)">
       <use xlink:href="#ArialMT-30"/>
       <use x="55.615234375" xlink:href="#ArialMT-2e"/>
       <use x="83.3984375" xlink:href="#ArialMT-30"/>
      </g>
     </g>
    </g>
    <g id="ytick_2">
     <g id="line2d_30">
      <path clip-path="url(#p613e24783a)" d="
M55.1053 202.968
L524.213 202.968" style="fill:none;stroke:#000000;stroke-dasharray:1.000000,3.000000;stroke-dashoffset:0.0;stroke-width:0.5;"/>
     </g>
     <g id="line2d_31">
      <g>
       <use style="stroke:#000000;stroke-width:0.5;" x="55.1053125" xlink:href="#m728421d6d4" y="202.968"/>
      </g>
     </g>
     <g id="line2d_32">
      <g>
       <use style="stroke:#000000;stroke-width:0.5;" x="524.2134375" xlink:href="#mcb0005524f" y="202.968"/>
      </g>
     </g>
     <g id="text_9">
      <!-- 0.1 -->
      <g transform="translate(37.1271875 206.0701875)scale(0.12 -0.12)">
       <use xlink:href="#ArialMT-30"/>
       <use x="55.615234375" xlink:href="#ArialMT-2e"/>
       <use x="83.3984375" xlink:href="#ArialMT-31"/>
      </g>
     </g>
    </g>
    <g id="ytick_3">
     <g id="line2d_33">
      <path clip-path="url(#p613e24783a)" d="
M55.1053 156.816
L524.213 156.816" style="fill:none;stroke:#000000;stroke-dasharray:1.000000,3.000000;stroke-dashoffset:0.0;stroke-width:0.5;"/>
     </g>
     <g id="line2d_34">
      <g>
       <use style="stroke:#000000;stroke-width:0.5;" x="55.1053125" xlink:href="#m728421d6d4" y="156.816"/>
      </g>
     </g>
     <g id="line2d_35">
      <g>
       <use style="stroke:#000000;stroke-width:0.5;" x="524.2134375" xlink:href="#mcb0005524f" y="156.816"/>
      </g>
     </g>
     <g id="text_10">
      <!-- 0.2 -->
      <g transform="translate(35.5559375 159.9181875)scale(0.12 -0.12)">
       <use xlink:href="#ArialMT-30"/>
       <use x="55.615234375" xlink:href="#ArialMT-2e"/>
       <use x="83.3984375" xlink:href="#ArialMT-32"/>
      </g>
     </g>
    </g>
    <g id="ytick_4">
     <g id="line2d_36">
      <path clip-path="url(#p613e24783a)" d="
M55.1053 110.664
L524.213 110.664" style="fill:none;stroke:#000000;stroke-dasharray:1.000000,3.000000;stroke-dashoffset:0.0;stroke-width:0.5;"/>
     </g>
     <g id="line2d_37">
      <g>
       <use style="stroke:#000000;stroke-width:0.5;" x="55.1053125" xlink:href="#m728421d6d4" y="110.664"/>
      </g>
     </g>
     <g id="line2d_38">
      <g>
       <use style="stroke:#000000;stroke-width:0.5;" x="524.2134375" xlink:href="#mcb0005524f" y="110.664"/>
      </g>
     </g>
     <g id="text_11">
      <!-- 0.3 -->
      <g transform="translate(35.4678125 113.7661875)scale(0.12 -0.12)">
       <use xlink:href="#ArialMT-30"/>
       <use x="55.615234375" xlink:href="#ArialMT-2e"/>
       <use x="83.3984375" xlink:href="#ArialMT-33"/>
      </g>
     </g>
    </g>
    <g id="ytick_5">
     <g id="line2d_39">
      <path clip-path="url(#p613e24783a)" d="
M55.1053 64.512
L524.213 64.512" style="fill:none;stroke:#000000;stroke-dasharray:1.000000,3.000000;stroke-dashoffset:0.0;stroke-width:0.5;"/>
     </g>
     <g id="line2d_40">
      <g>
       <use style="stroke:#000000;stroke-width:0.5;" x="55.1053125" xlink:href="#m728421d6d4" y="64.512"/>
      </g>
     </g>
     <g id="line2d_41">
      <g>
       <use style="stroke:#000000;stroke-width:0.5;" x="524.2134375" xlink:href="#mcb0005524f" y="64.512"/>
      </g>
     </g>
     <g id="text_12">
      <!-- 0.4 -->
      <g transform="translate(35.5034375 67.6141875)scale(0.12 -0.12)">
       <use xlink:href="#ArialMT-30"/>
       <use x="55.615234375" xlink:href="#ArialMT-2e"/>
       <use x="83.3984375" xlink:href="#ArialMT-34"/>
      </g>
     </g>
    </g>
    <g id="ytick_6">
     <g id="line2d_42">
      <path clip-path="url(#p613e24783a)" d="
M55.1053 18.36
L524.213 18.36" style="fill:none;stroke:#000000;stroke-dasharray:1.000000,3.000000;stroke-dashoffset:0.0;stroke-width:0.5;"/>
     </g>
     <g id="line2d_43">
      <g>
       <use style="stroke:#000000;stroke-width:0.5;" x="55.1053125" xlink:href="#m728421d6d4" y="18.36"/>
      </g>
     </g>
     <g id="line2d_44">
      <g>
       <use style="stroke:#000000;stroke-width:0.5;" x="524.2134375" xlink:href="#mcb0005524f" y="18.36"/>
      </g>
     </g>
     <g id="text_13">
      <!-- 0.5 -->
      <g transform="translate(35.4040625 21.4621875)scale(0.12 -0.12)">
       <use xlink:href="#ArialMT-30"/>
       <use x="55.615234375" xlink:href="#ArialMT-2e"/>
       <use x="83.3984375" xlink:href="#ArialMT-35"/>
      </g>
     </g>
    </g>
    <g id="text_14">
     <!-- RMSE -->
     <defs>
      <path d="
M7.85938 0
L7.85938 71.5781
L39.5938 71.5781
Q49.1719 71.5781 54.1406 69.6406
Q59.125 67.7188 62.1094 62.8281
Q65.0938 57.9531 65.0938 52.0469
Q65.0938 44.4375 60.1562 39.2031
Q55.2188 33.9844 44.9219 32.5625
Q48.6875 30.7656 50.6406 29
Q54.7812 25.2031 58.5 19.4844
L70.9531 0
L59.0312 0
L49.5625 14.8906
Q45.4062 21.3438 42.7188 24.75
Q40.0469 28.1719 37.9219 29.5312
Q35.7969 30.9062 33.5938 31.4531
Q31.9844 31.7812 28.3281 31.7812
L17.3281 31.7812
L17.3281 0
z

M17.3281 39.9844
L37.7031 39.9844
Q44.1875 39.9844 47.8438 41.3281
Q51.5156 42.6719 53.4219 45.625
Q55.3281 48.5781 55.3281 52.0469
Q55.3281 57.125 51.6406 60.3906
Q47.9531 63.6719 39.9844 63.6719
L17.3281 63.6719
z
" id="ArialMT-52"/>
      <path d="
M4.5 23
L13.4219 23.7812
Q14.0625 18.4062 16.375 14.9688
Q18.7031 11.5312 23.5781 9.40625
Q28.4688 7.28125 34.5781 7.28125
Q39.9844 7.28125 44.1406 8.89062
Q48.2969 10.5 50.3125 13.2969
Q52.3438 16.1094 52.3438 19.4375
Q52.3438 22.7969 50.3906 25.3125
Q48.4375 27.8281 43.9531 29.5469
Q41.0625 30.6719 31.2031 33.0312
Q21.3438 35.4062 17.3906 37.5
Q12.25 40.1875 9.73438 44.1562
Q7.23438 48.1406 7.23438 53.0781
Q7.23438 58.5 10.2969 63.2031
Q13.375 67.9219 19.2812 70.3594
Q25.2031 72.7969 32.4219 72.7969
Q40.375 72.7969 46.4531 70.2344
Q52.5469 67.6719 55.8125 62.6875
Q59.0781 57.7188 59.3281 51.4219
L50.25 50.7344
Q49.5156 57.5156 45.2812 60.9844
Q41.0625 64.4531 32.8125 64.4531
Q24.2188 64.4531 20.2812 61.2969
Q16.3594 58.1562 16.3594 53.7188
Q16.3594 49.8594 19.1406 47.3594
Q21.875 44.875 33.4219 42.2656
Q44.9688 39.6562 49.2656 37.7031
Q55.5156 34.8125 58.4844 30.3906
Q61.4688 25.9844 61.4688 20.2188
Q61.4688 14.5 58.2031 9.4375
Q54.9375 4.39062 48.7969 1.57812
Q42.6719 -1.21875 35.0156 -1.21875
Q25.2969 -1.21875 18.7188 1.60938
Q12.1562 4.4375 8.42188 10.125
Q4.6875 15.8281 4.5 23" id="ArialMT-53"/>
      <path d="
M7.90625 0
L7.90625 71.5781
L59.6719 71.5781
L59.6719 63.1406
L17.3906 63.1406
L17.3906 41.2188
L56.9844 41.2188
L56.9844 32.8125
L17.3906 32.8125
L17.3906 8.45312
L61.3281 8.45312
L61.3281 0
z
" id="ArialMT-45"/>
      <path d="
M7.42188 0
L7.42188 71.5781
L21.6875 71.5781
L38.625 20.9062
Q40.9688 13.8125 42.0469 10.2969
Q43.2656 14.2031 45.8438 21.7812
L62.9844 71.5781
L75.7344 71.5781
L75.7344 0
L66.6094 0
L66.6094 59.9062
L45.7969 0
L37.25 0
L16.5469 60.9375
L16.5469 0
z
" id="ArialMT-4d"/>
     </defs>
     <g transform="translate(28.0190625 150.28125)rotate(-90.0)scale(0.12 -0.12)">
      <use xlink:href="#ArialMT-52"/>
      <use x="72.216796875" xlink:href="#ArialMT-4d"/>
      <use x="155.517578125" xlink:href="#ArialMT-53"/>
      <use x="222.216796875" xlink:href="#ArialMT-45"/>
     </g>
    </g>
   </g>
   <g id="patch_3">
    <path d="
M55.1053 18.36
L524.213 18.36" style="fill:none;stroke:#000000;"/>
   </g>
   <g id="patch_4">
    <path d="
M524.213 249.12
L524.213 18.36" style="fill:none;stroke:#000000;"/>
   </g>
   <g id="patch_5">
    <path d="
M55.1053 249.12
L524.213 249.12" style="fill:none;stroke:#000000;"/>
   </g>
   <g id="patch_6">
    <path d="
M55.1053 249.12
L55.1053 18.36" style="fill:none;stroke:#000000;"/>
   </g>
   <g id="legend_1">
    <g id="patch_7">
     <path d="
M69.7764 70.7872
L517.013 70.7872
L517.013 25.56
L69.7764 25.56
L69.7764 70.7872
z
" style="fill:#ffffff;stroke:#000000;"/>
    </g>
    <g id="line2d_45">
     <path d="
M79.8564 36.5873
L100.016 36.5873" style="fill:none;stroke:#000000;stroke-linecap:square;stroke-width:1.5;"/>
    </g>
    <g id="line2d_46"/>
    <g id="text_15">
     <!-- Plugin -->
     <defs>
      <path d="
M40.5781 0
L40.5781 7.625
Q34.5156 -1.17188 24.125 -1.17188
Q19.5312 -1.17188 15.5469 0.578125
Q11.5781 2.34375 9.64062 5
Q7.71875 7.67188 6.9375 11.5312
Q6.39062 14.1094 6.39062 19.7344
L6.39062 51.8594
L15.1875 51.8594
L15.1875 23.0938
Q15.1875 16.2188 15.7188 13.8125
Q16.5469 10.3594 19.2344 8.375
Q21.9219 6.39062 25.875 6.39062
Q29.8281 6.39062 33.2969 8.42188
Q36.7656 10.4531 38.2031 13.9375
Q39.6562 17.4375 39.6562 24.0781
L39.6562 51.8594
L48.4375 51.8594
L48.4375 0
z
" id="ArialMT-75"/>
      <path d="
M7.71875 0
L7.71875 71.5781
L34.7188 71.5781
Q41.8438 71.5781 45.6094 70.9062
Q50.875 70.0156 54.4375 67.5469
Q58.0156 65.0938 60.1875 60.6406
Q62.3594 56.2031 62.3594 50.875
Q62.3594 41.75 56.5469 35.4219
Q50.7344 29.1094 35.5469 29.1094
L17.1875 29.1094
L17.1875 0
z

M17.1875 37.5469
L35.6875 37.5469
Q44.875 37.5469 48.7344 40.9688
Q52.5938 44.3906 52.5938 50.5938
Q52.5938 55.0781 50.3125 58.2656
Q48.0469 61.4688 44.3438 62.5
Q41.9375 63.1406 35.5 63.1406
L17.1875 63.1406
z
" id="ArialMT-50"/>
      <path d="
M4.98438 -4.29688
L13.5312 -5.5625
Q14.0625 -9.51562 16.5 -11.3281
Q19.7812 -13.7656 25.4375 -13.7656
Q31.5469 -13.7656 34.8594 -11.3281
Q38.1875 -8.89062 39.3594 -4.5
Q40.0469 -1.8125 39.9844 6.78125
Q34.2344 0 25.6406 0
Q14.9375 0 9.07812 7.71875
Q3.21875 15.4375 3.21875 26.2188
Q3.21875 33.6406 5.90625 39.9062
Q8.59375 46.1875 13.6875 49.6094
Q18.7969 53.0312 25.6875 53.0312
Q34.8594 53.0312 40.8281 45.6094
L40.8281 51.8594
L48.9219 51.8594
L48.9219 7.03125
Q48.9219 -5.07812 46.4531 -10.125
Q44 -15.1875 38.6406 -18.1094
Q33.2969 -21.0469 25.4844 -21.0469
Q16.2188 -21.0469 10.5 -16.875
Q4.78125 -12.7031 4.98438 -4.29688
M12.25 26.8594
Q12.25 16.6562 16.2969 11.9688
Q20.3594 7.28125 26.4688 7.28125
Q32.5156 7.28125 36.6094 11.9375
Q40.7188 16.6094 40.7188 26.5625
Q40.7188 36.0781 36.5 40.9062
Q32.2812 45.75 26.3125 45.75
Q20.4531 45.75 16.3438 40.9844
Q12.25 36.2344 12.25 26.8594" id="ArialMT-67"/>
      <path d="
M6.59375 0
L6.59375 51.8594
L14.5 51.8594
L14.5 44.4844
Q20.2188 53.0312 31 53.0312
Q35.6875 53.0312 39.625 51.3438
Q43.5625 49.6562 45.5156 46.9219
Q47.4688 44.1875 48.25 40.4375
Q48.7344 37.9844 48.7344 31.8906
L48.7344 0
L39.9375 0
L39.9375 31.5469
Q39.9375 36.9219 38.9062 39.5781
Q37.8906 42.2344 35.2812 43.8125
Q32.6719 45.4062 29.1562 45.4062
Q23.5312 45.4062 19.4531 41.8438
Q15.375 38.2812 15.375 28.3281
L15.375 0
z
" id="ArialMT-6e"/>
     </defs>
     <g transform="translate(115.8564375 41.62725)scale(0.144 -0.144)">
      <use xlink:href="#ArialMT-50"/>
      <use x="66.69921875" xlink:href="#ArialMT-6c"/>
      <use x="88.916015625" xlink:href="#ArialMT-75"/>
      <use x="144.53125" xlink:href="#ArialMT-67"/>
      <use x="200.146484375" xlink:href="#ArialMT-69"/>
      <use x="222.36328125" xlink:href="#ArialMT-6e"/>
     </g>
    </g>
    <g id="line2d_47">
     <path d="
M79.8564 57.1253
L100.016 57.1253" style="fill:none;stroke:#0000ff;stroke-linecap:square;stroke-width:1.5;"/>
    </g>
    <g id="line2d_48"/>
    <g id="text_16">
     <!-- Miller -->
     <g transform="translate(115.8564375 62.16525)scale(0.144 -0.144)">
      <use xlink:href="#ArialMT-4d"/>
      <use x="83.30078125" xlink:href="#ArialMT-69"/>
      <use x="105.517578125" xlink:href="#ArialMT-6c"/>
      <use x="127.734375" xlink:href="#ArialMT-6c"/>
      <use x="149.951171875" xlink:href="#ArialMT-65"/>
      <use x="205.56640625" xlink:href="#ArialMT-72"/>
     </g>
    </g>
    <g id="line2d_49">
     <path d="
M186.902 36.5873
L207.062 36.5873" style="fill:none;stroke:#ff0000;stroke-linecap:square;stroke-width:1.5;"/>
    </g>
    <g id="line2d_50"/>
    <g id="text_17">
     <!-- Jackknife -->
     <defs>
      <path d="
M2.875 20.3125
L11.4219 21.4844
Q11.7656 13.2812 14.5 10.25
Q17.2344 7.23438 22.0781 7.23438
Q25.6406 7.23438 28.2188 8.85938
Q30.8125 10.5 31.7812 13.2969
Q32.7656 16.1094 32.7656 22.2656
L32.7656 71.5781
L42.2344 71.5781
L42.2344 22.7969
Q42.2344 13.8125 40.0625 8.875
Q37.8906 3.95312 33.1719 1.35938
Q28.4688 -1.21875 22.125 -1.21875
Q12.7031 -1.21875 7.6875 4.20312
Q2.6875 9.625 2.875 20.3125" id="ArialMT-4a"/>
      <path d="
M6.64062 0
L6.64062 71.5781
L15.4375 71.5781
L15.4375 30.7656
L36.2344 51.8594
L47.6094 51.8594
L27.7812 32.625
L49.6094 0
L38.7656 0
L21.625 26.5156
L15.4375 20.5625
L15.4375 0
z
" id="ArialMT-6b"/>
      <path d="
M40.4375 6.39062
Q35.5469 2.25 31.0312 0.53125
Q26.5156 -1.17188 21.3438 -1.17188
Q12.7969 -1.17188 8.20312 3
Q3.60938 7.17188 3.60938 13.6719
Q3.60938 17.4844 5.34375 20.625
Q7.07812 23.7812 9.89062 25.6875
Q12.7031 27.5938 16.2188 28.5625
Q18.7969 29.25 24.0312 29.8906
Q34.6719 31.1562 39.7031 32.9062
Q39.75 34.7188 39.75 35.2031
Q39.75 40.5781 37.25 42.7812
Q33.8906 45.75 27.25 45.75
Q21.0469 45.75 18.0938 43.5781
Q15.1406 41.4062 13.7188 35.8906
L5.125 37.0625
Q6.29688 42.5781 8.98438 45.9688
Q11.6719 49.3594 16.75 51.1875
Q21.8281 53.0312 28.5156 53.0312
Q35.1562 53.0312 39.2969 51.4688
Q43.4531 49.9062 45.4062 47.5312
Q47.3594 45.1719 48.1406 41.5469
Q48.5781 39.3125 48.5781 33.4531
L48.5781 21.7344
Q48.5781 9.46875 49.1406 6.21875
Q49.7031 2.98438 51.375 0
L42.1875 0
Q40.8281 2.73438 40.4375 6.39062
M39.7031 26.0312
Q34.9062 24.0781 25.3438 22.7031
Q19.9219 21.9219 17.6719 20.9375
Q15.4375 19.9688 14.2031 18.0938
Q12.9844 16.2188 12.9844 13.9219
Q12.9844 10.4062 15.6406 8.0625
Q18.3125 5.71875 23.4375 5.71875
Q28.5156 5.71875 32.4688 7.9375
Q36.4219 10.1562 38.2812 14.0156
Q39.7031 17 39.7031 22.7969
z
" id="ArialMT-61"/>
      <path d="
M8.6875 0
L8.6875 45.0156
L0.921875 45.0156
L0.921875 51.8594
L8.6875 51.8594
L8.6875 57.375
Q8.6875 62.5938 9.625 65.1406
Q10.8906 68.5625 14.0781 70.6719
Q17.2812 72.7969 23.0469 72.7969
Q26.7656 72.7969 31.25 71.9219
L29.9375 64.2656
Q27.2031 64.75 24.75 64.75
Q20.75 64.75 19.0938 63.0312
Q17.4375 61.3281 17.4375 56.6406
L17.4375 51.8594
L27.5469 51.8594
L27.5469 45.0156
L17.4375 45.0156
L17.4375 0
z
" id="ArialMT-66"/>
     </defs>
     <g transform="translate(222.9024375 41.62725)scale(0.144 -0.144)">
      <use xlink:href="#ArialMT-4a"/>
      <use x="50.0" xlink:href="#ArialMT-61"/>
      <use x="105.615234375" xlink:href="#ArialMT-63"/>
      <use x="155.615234375" xlink:href="#ArialMT-6b"/>
      <use x="205.615234375" xlink:href="#ArialMT-6b"/>
      <use x="255.615234375" xlink:href="#ArialMT-6e"/>
      <use x="311.23046875" xlink:href="#ArialMT-69"/>
      <use x="333.447265625" xlink:href="#ArialMT-66"/>
      <use x="361.23046875" xlink:href="#ArialMT-65"/>
     </g>
    </g>
    <g id="line2d_51">
     <path d="
M186.902 56.9565
L207.062 56.9565" style="fill:none;stroke:#bf00bf;stroke-linecap:square;stroke-width:1.5;"/>
    </g>
    <g id="line2d_52"/>
    <g id="text_18">
     <!-- GB2003 -->
     <defs>
      <path d="
M7.32812 0
L7.32812 71.5781
L34.1875 71.5781
Q42.3906 71.5781 47.3438 69.4062
Q52.2969 67.2344 55.0938 62.7188
Q57.9062 58.2031 57.9062 53.2656
Q57.9062 48.6875 55.4219 44.625
Q52.9375 40.5781 47.9062 38.0938
Q54.3906 36.1875 57.875 31.5938
Q61.375 27 61.375 20.75
Q61.375 15.7188 59.25 11.3906
Q57.125 7.07812 54 4.73438
Q50.875 2.39062 46.1562 1.1875
Q41.4531 0 34.625 0
z

M16.7969 41.5
L32.2812 41.5
Q38.5781 41.5 41.3125 42.3281
Q44.9219 43.4062 46.75 45.8906
Q48.5781 48.3906 48.5781 52.1562
Q48.5781 55.7188 46.875 58.4219
Q45.1719 61.1406 41.9844 62.1406
Q38.8125 63.1406 31.1094 63.1406
L16.7969 63.1406
z

M16.7969 8.45312
L34.625 8.45312
Q39.2031 8.45312 41.0625 8.79688
Q44.3438 9.375 46.5312 10.7344
Q48.7344 12.1094 50.1406 14.7188
Q51.5625 17.3281 51.5625 20.75
Q51.5625 24.75 49.5156 27.7031
Q47.4688 30.6719 43.8281 31.8594
Q40.1875 33.0625 33.3438 33.0625
L16.7969 33.0625
z
" id="ArialMT-42"/>
      <path d="
M41.2188 28.0781
L41.2188 36.4688
L71.5312 36.5312
L71.5312 9.96875
Q64.5469 4.39062 57.125 1.57812
Q49.7031 -1.21875 41.8906 -1.21875
Q31.3438 -1.21875 22.7188 3.29688
Q14.1094 7.8125 9.71875 16.3594
Q5.32812 24.9062 5.32812 35.4531
Q5.32812 45.9062 9.6875 54.9531
Q14.0625 64.0156 22.2656 68.4062
Q30.4688 72.7969 41.1562 72.7969
Q48.9219 72.7969 55.1875 70.2812
Q61.4688 67.7812 65.0312 63.2812
Q68.6094 58.7969 70.4531 51.5625
L61.9219 49.2188
Q60.2969 54.6875 57.9062 57.8125
Q55.5156 60.9375 51.0625 62.8125
Q46.625 64.7031 41.2188 64.7031
Q34.7188 64.7031 29.9844 62.7188
Q25.25 60.75 22.3438 57.5156
Q19.4375 54.2969 17.8281 50.4375
Q15.0938 43.7969 15.0938 36.0312
Q15.0938 26.4688 18.3906 20.0156
Q21.6875 13.5781 27.9844 10.4531
Q34.2812 7.32812 41.3594 7.32812
Q47.5156 7.32812 53.375 9.6875
Q59.2344 12.0625 62.25 14.75
L62.25 28.0781
z
" id="ArialMT-47"/>
     </defs>
     <g transform="translate(222.9024375 61.9965)scale(0.144 -0.144)">
      <use xlink:href="#ArialMT-47"/>
      <use x="77.783203125" xlink:href="#ArialMT-42"/>
      <use x="144.482421875" xlink:href="#ArialMT-32"/>
      <use x="200.09765625" xlink:href="#ArialMT-30"/>
      <use x="255.712890625" xlink:href="#ArialMT-30"/>
      <use x="311.328125" xlink:href="#ArialMT-33"/>
     </g>
    </g>
    <g id="line2d_53">
     <path d="
M315.062 36.5873
L335.222 36.5873" style="fill:none;stroke:#008000;stroke-linecap:square;stroke-width:1.5;"/>
    </g>
    <g id="line2d_54"/>
    <g id="text_19">
     <!-- Hausser -->
     <defs>
      <path d="
M8.01562 0
L8.01562 71.5781
L17.4844 71.5781
L17.4844 42.1875
L54.6875 42.1875
L54.6875 71.5781
L64.1562 71.5781
L64.1562 0
L54.6875 0
L54.6875 33.7344
L17.4844 33.7344
L17.4844 0
z
" id="ArialMT-48"/>
     </defs>
     <g transform="translate(351.0624375 41.62725)scale(0.144 -0.144)">
      <use xlink:href="#ArialMT-48"/>
      <use x="72.216796875" xlink:href="#ArialMT-61"/>
      <use x="127.83203125" xlink:href="#ArialMT-75"/>
      <use x="183.447265625" xlink:href="#ArialMT-73"/>
      <use x="233.447265625" xlink:href="#ArialMT-73"/>
      <use x="283.447265625" xlink:href="#ArialMT-65"/>
      <use x="339.0625" xlink:href="#ArialMT-72"/>
     </g>
    </g>
    <g id="line2d_55">
     <path d="
M315.062 56.9565
L335.222 56.9565" style="fill:none;stroke:#000000;stroke-dasharray:6.000000,6.000000;stroke-dashoffset:0.0;stroke-width:1.5;"/>
    </g>
    <g id="line2d_56"/>
    <g id="text_20">
     <!-- Poly -->
     <g transform="translate(351.0624375 61.9965)scale(0.144 -0.144)">
      <use xlink:href="#ArialMT-50"/>
      <use x="66.69921875" xlink:href="#ArialMT-6f"/>
      <use x="122.314453125" xlink:href="#ArialMT-6c"/>
      <use x="144.53125" xlink:href="#ArialMT-79"/>
     </g>
    </g>
    <g id="line2d_57">
     <path d="
M436.844 36.5873
L457.004 36.5873" style="fill:none;stroke:#0000ff;stroke-dasharray:6.000000,6.000000;stroke-dashoffset:0.0;stroke-width:1.5;"/>
    </g>
    <g id="line2d_58"/>
    <g id="text_21">
     <!-- Bayes -->
     <g transform="translate(472.8436875 41.62725)scale(0.144 -0.144)">
      <use xlink:href="#ArialMT-42"/>
      <use x="66.69921875" xlink:href="#ArialMT-61"/>
      <use x="122.314453125" xlink:href="#ArialMT-79"/>
      <use x="172.314453125" xlink:href="#ArialMT-65"/>
      <use x="227.9296875" xlink:href="#ArialMT-73"/>
     </g>
    </g>
    <g id="line2d_59">
     <path d="
M436.844 57.1253
L457.004 57.1253" style="fill:none;stroke:#ff0000;stroke-dasharray:6.000000,6.000000;stroke-dashoffset:0.0;stroke-width:1.5;"/>
    </g>
    <g id="line2d_60"/>
    <g id="text_22">
     <!-- NSB -->
     <defs>
      <path d="
M7.625 0
L7.625 71.5781
L17.3281 71.5781
L54.9375 15.375
L54.9375 71.5781
L64.0156 71.5781
L64.0156 0
L54.2969 0
L16.7031 56.25
L16.7031 0
z
" id="ArialMT-4e"/>
     </defs>
     <g transform="translate(472.8436875 62.16525)scale(0.144 -0.144)">
      <use xlink:href="#ArialMT-4e"/>
      <use x="72.216796875" xlink:href="#ArialMT-53"/>
      <use x="138.916015625" xlink:href="#ArialMT-42"/>
     </g>
    </g>
   </g>
  </g>
  <g id="axes_2">
   <g id="patch_8">
    <path d="
M55.1053 527.94
L524.213 527.94
L524.213 297.18
L55.1053 297.18
z
" style="fill:#ffffff;"/>
   </g>
   <g id="line2d_61">
    <path clip-path="url(#p00b790fa5f)" d="
M66.833 425.884
L78.5607 411.189
L90.2884 402.877
L102.016 397.337
L113.744 393.046
L125.472 389.644
L137.199 387.883
L148.927 386.156
L160.655 384.992
L172.382 383.551
L184.11 382.456
L195.838 382.18
L207.565 381.373
L219.293 380.562
L231.021 380.003
L242.749 379.534
L254.476 379.472
L266.204 378.689
L277.932 378.554
L289.659 378.63
L301.387 378.726
L313.115 377.965
L324.842 377.28
L336.57 377.68
L348.298 378.008
L360.026 377.539
L371.753 377.145
L383.481 377.126
L395.209 376.708
L406.936 377.209
L418.664 377.088
L430.392 376.85
L442.12 377.011
L453.847 376.579
L465.575 376.438
L477.303 375.987
L489.03 376.612
L500.758 376.312
L512.486 376.449
L524.213 376.674" style="fill:none;stroke:#000000;stroke-linecap:square;stroke-width:1.5;"/>
   </g>
   <g id="line2d_62">
    <path clip-path="url(#p00b790fa5f)" d="
M66.833 498.574
L78.5607 483.879
L90.2884 475.566
L102.016 470.027
L113.744 465.735
L125.472 462.334
L137.199 460.573
L148.927 458.845
L160.655 457.682
L172.382 456.24
L184.11 455.145
L195.838 454.87
L207.565 454.062
L219.293 453.251
L231.021 452.692
L242.749 452.223
L254.476 452.162
L266.204 451.378
L277.932 451.243
L289.659 451.32
L301.387 451.416
L313.115 450.655
L324.842 449.97
L336.57 450.37
L348.298 450.698
L360.026 450.228
L371.753 449.835
L383.481 449.815
L395.209 449.397
L406.936 449.898
L418.664 449.777
L430.392 449.539
L442.12 449.7
L453.847 449.269
L465.575 449.127
L477.303 448.677
L489.03 449.302
L500.758 449.002
L512.486 449.138
L524.213 449.363" style="fill:none;stroke:#0000ff;stroke-linecap:square;stroke-width:1.5;"/>
   </g>
   <g id="line2d_63">
    <path clip-path="url(#p00b790fa5f)" d="
M66.833 453.239
L78.5607 451.238
L90.2884 450.954
L102.016 450.965
L113.744 450.848
L125.472 450.504
L137.199 451.521
L148.927 452.084
L160.655 452.631
L172.382 452.754
L184.11 452.896
L195.838 453.764
L207.565 453.922
L219.293 453.982
L231.021 454.278
L242.749 454.442
L254.476 455.151
L266.204 454.787
L277.932 455.182
L289.659 455.821
L301.387 456.603
L313.115 455.91
L324.842 455.563
L336.57 456.373
L348.298 457.205
L360.026 456.923
L371.753 456.661
L383.481 457.003
L395.209 456.801
L406.936 457.679
L418.664 457.768
L430.392 457.656
L442.12 458.157
L453.847 457.757
L465.575 457.762
L477.303 457.334
L489.03 458.414
L500.758 458.03
L512.486 458.447
L524.213 458.848" style="fill:none;stroke:#ff0000;stroke-linecap:square;stroke-width:1.5;"/>
   </g>
   <g id="line2d_64">
    <path clip-path="url(#p00b790fa5f)" d="
M66.833 454.124
L78.5607 452.397
L90.2884 451.665
L102.016 451.493
L113.744 451.201
L125.472 450.627
L137.199 451.412
L148.927 451.921
L160.655 452.153
L172.382 452.241
L184.11 452.099
L195.838 452.964
L207.565 452.897
L219.293 452.762
L231.021 453.086
L242.749 453.23
L254.476 453.677
L266.204 453.35
L277.932 453.458
L289.659 453.871
L301.387 454.681
L313.115 453.96
L324.842 453.617
L336.57 454.133
L348.298 454.999
L360.026 454.554
L371.753 454.442
L383.481 454.529
L395.209 454.306
L406.936 455.386
L418.664 455.219
L430.392 455.056
L442.12 455.663
L453.847 455.211
L465.575 455.069
L477.303 454.583
L489.03 455.672
L500.758 455.119
L512.486 455.532
L524.213 455.822" style="fill:none;stroke:#bf00bf;stroke-linecap:square;stroke-width:1.5;"/>
   </g>
   <g id="line2d_65">
    <path clip-path="url(#p00b790fa5f)" d="
M66.833 501.892
L78.5607 506.964
L90.2884 507.64
L102.016 506.529
L113.744 504.294
L125.472 502.173
L137.199 500.59
L148.927 498.7
L160.655 497.301
L172.382 495.364
L184.11 493.699
L195.838 492.929
L207.565 491.356
L219.293 489.961
L231.021 488.775
L242.749 487.616
L254.476 486.801
L266.204 485.624
L277.932 484.814
L289.659 484.203
L301.387 483.471
L313.115 482.492
L324.842 481.505
L336.57 481.154
L348.298 480.838
L360.026 479.995
L371.753 479.412
L383.481 478.727
L395.209 478.107
L406.936 477.974
L418.664 477.436
L430.392 476.973
L442.12 476.588
L453.847 476
L465.575 475.569
L477.303 475.117
L489.03 474.928
L500.758 474.635
L512.486 474.227
L524.213 474.12" style="fill:none;stroke:#008000;stroke-linecap:square;stroke-width:1.5;"/>
   </g>
   <g id="line2d_66">
    <path clip-path="url(#p00b790fa5f)" d="
M66.833 447.169
L78.5607 441.635
L90.2884 439.01
L102.016 437.346
L113.744 435.93
L125.472 434.672
L137.199 434.826
L148.927 434.62
L160.655 434.659
L172.382 434.25
L184.11 434.025
L195.838 434.534
L207.565 434.372
L219.293 434.183
L231.021 434.186
L242.749 434.144
L254.476 434.598
L266.204 434.098
L277.932 434.343
L289.659 434.797
L301.387 435.327
L313.115 434.663
L324.842 434.177
L336.57 434.888
L348.298 435.533
L360.026 435.209
L371.753 434.916
L383.481 435.143
L395.209 434.849
L406.936 435.606
L418.664 435.633
L430.392 435.488
L442.12 435.868
L453.847 435.469
L465.575 435.437
L477.303 435.001
L489.03 435.908
L500.758 435.6
L512.486 435.913
L524.213 436.264" style="fill:none;stroke:#000000;stroke-dasharray:6.000000,6.000000;stroke-dashoffset:0.0;stroke-width:1.5;"/>
   </g>
   <g id="line2d_67">
    <path clip-path="url(#p00b790fa5f)" d="
M66.833 562.328
L78.5607 507.571
L90.2884 477.872
L102.016 458.952
L113.744 445.369
L125.472 435.002
L137.199 427.417
L148.927 421.249
L160.655 416.448
L172.382 412.066
L184.11 408.422
L195.838 405.84
L207.565 403.285
L219.293 400.63
L231.021 398.518
L242.749 396.907
L254.476 395.447
L266.204 393.876
L277.932 392.677
L289.659 391.763
L301.387 390.765
L313.115 389.632
L324.842 388.424
L336.57 387.956
L348.298 387.496
L360.026 386.598
L371.753 385.865
L383.481 385.233
L395.209 384.546
L406.936 384.35
L418.664 383.812
L430.392 383.323
L442.12 382.924
L453.847 382.368
L465.575 381.962
L477.303 381.442
L489.03 381.416
L500.758 381.018
L512.486 380.744
L524.213 380.605" style="fill:none;stroke:#0000ff;stroke-dasharray:6.000000,6.000000;stroke-dashoffset:0.0;stroke-width:1.5;"/>
   </g>
   <g id="line2d_68">
    <path clip-path="url(#p00b790fa5f)" d="
M66.833 458.657
L78.5607 457.877
L90.2884 457.745
L102.016 457.39
L113.744 456.703
L125.472 455.841
L137.199 456.228
L148.927 456.009
L160.655 456.059
L172.382 455.517
L184.11 455.202
L195.838 455.576
L207.565 455.198
L219.293 454.869
L231.021 454.663
L242.749 454.358
L254.476 454.579
L266.204 453.928
L277.932 453.971
L289.659 454.124
L301.387 454.307
L313.115 453.602
L324.842 452.951
L336.57 453.383
L348.298 453.698
L360.026 453.187
L371.753 452.841
L383.481 452.734
L395.209 452.339
L406.936 452.72
L418.664 452.529
L430.392 452.326
L442.12 452.385
L453.847 451.951
L465.575 451.757
L477.303 451.3
L489.03 451.724
L500.758 451.544
L512.486 451.455
L524.213 451.615" style="fill:none;stroke:#ff0000;stroke-dasharray:6.000000,6.000000;stroke-dashoffset:0.0;stroke-width:1.5;"/>
   </g>
   <g id="matplotlib.axis_3">
    <g id="xtick_7">
     <g id="line2d_69">
      <path clip-path="url(#p00b790fa5f)" d="
M55.1053 527.94
L55.1053 297.18" style="fill:none;stroke:#000000;stroke-dasharray:1.000000,3.000000;stroke-dashoffset:0.0;stroke-width:0.5;"/>
     </g>
     <g id="line2d_70">
      <g>
       <use style="stroke:#000000;stroke-width:0.5;" x="55.1053125" xlink:href="#m93b0483c22" y="527.94"/>
      </g>
     </g>
     <g id="line2d_71">
      <g>
       <use style="stroke:#000000;stroke-width:0.5;" x="55.1053125" xlink:href="#m741efc42ff" y="297.18"/>
      </g>
     </g>
     <g id="text_23">
      <!-- 0 -->
      <g transform="translate(52.305 540.529375)scale(0.12 -0.12)">
       <use xlink:href="#ArialMT-30"/>
      </g>
     </g>
    </g>
    <g id="xtick_8">
     <g id="line2d_72">
      <path clip-path="url(#p00b790fa5f)" d="
M148.927 527.94
L148.927 297.18" style="fill:none;stroke:#000000;stroke-dasharray:1.000000,3.000000;stroke-dashoffset:0.0;stroke-width:0.5;"/>
     </g>
     <g id="line2d_73">
      <g>
       <use style="stroke:#000000;stroke-width:0.5;" x="148.9269375" xlink:href="#m93b0483c22" y="527.94"/>
      </g>
     </g>
     <g id="line2d_74">
      <g>
       <use style="stroke:#000000;stroke-width:0.5;" x="148.9269375" xlink:href="#m741efc42ff" y="297.18"/>
      </g>
     </g>
     <g id="text_24">
      <!-- 1 -->
      <g transform="translate(147.345375 540.529375)scale(0.12 -0.12)">
       <use xlink:href="#ArialMT-31"/>
      </g>
     </g>
    </g>
    <g id="xtick_9">
     <g id="line2d_75">
      <path clip-path="url(#p00b790fa5f)" d="
M242.749 527.94
L242.749 297.18" style="fill:none;stroke:#000000;stroke-dasharray:1.000000,3.000000;stroke-dashoffset:0.0;stroke-width:0.5;"/>
     </g>
     <g id="line2d_76">
      <g>
       <use style="stroke:#000000;stroke-width:0.5;" x="242.7485625" xlink:href="#m93b0483c22" y="527.94"/>
      </g>
     </g>
     <g id="line2d_77">
      <g>
       <use style="stroke:#000000;stroke-width:0.5;" x="242.7485625" xlink:href="#m741efc42ff" y="297.18"/>
      </g>
     </g>
     <g id="text_25">
      <!-- 2 -->
      <g transform="translate(239.9041875 540.529375)scale(0.12 -0.12)">
       <use xlink:href="#ArialMT-32"/>
      </g>
     </g>
    </g>
    <g id="xtick_10">
     <g id="line2d_78">
      <path clip-path="url(#p00b790fa5f)" d="
M336.57 527.94
L336.57 297.18" style="fill:none;stroke:#000000;stroke-dasharray:1.000000,3.000000;stroke-dashoffset:0.0;stroke-width:0.5;"/>
     </g>
     <g id="line2d_79">
      <g>
       <use style="stroke:#000000;stroke-width:0.5;" x="336.5701875" xlink:href="#m93b0483c22" y="527.94"/>
      </g>
     </g>
     <g id="line2d_80">
      <g>
       <use style="stroke:#000000;stroke-width:0.5;" x="336.5701875" xlink:href="#m741efc42ff" y="297.18"/>
      </g>
     </g>
     <g id="text_26">
      <!-- 3 -->
      <g transform="translate(333.7576875 540.529375)scale(0.12 -0.12)">
       <use xlink:href="#ArialMT-33"/>
      </g>
     </g>
    </g>
    <g id="xtick_11">
     <g id="line2d_81">
      <path clip-path="url(#p00b790fa5f)" d="
M430.392 527.94
L430.392 297.18" style="fill:none;stroke:#000000;stroke-dasharray:1.000000,3.000000;stroke-dashoffset:0.0;stroke-width:0.5;"/>
     </g>
     <g id="line2d_82">
      <g>
       <use style="stroke:#000000;stroke-width:0.5;" x="430.3918125" xlink:href="#m93b0483c22" y="527.94"/>
      </g>
     </g>
     <g id="line2d_83">
      <g>
       <use style="stroke:#000000;stroke-width:0.5;" x="430.3918125" xlink:href="#m741efc42ff" y="297.18"/>
      </g>
     </g>
     <g id="text_27">
      <!-- 4 -->
      <g transform="translate(427.420875 540.529375)scale(0.12 -0.12)">
       <use xlink:href="#ArialMT-34"/>
      </g>
     </g>
    </g>
    <g id="xtick_12">
     <g id="line2d_84">
      <path clip-path="url(#p00b790fa5f)" d="
M524.213 527.94
L524.213 297.18" style="fill:none;stroke:#000000;stroke-dasharray:1.000000,3.000000;stroke-dashoffset:0.0;stroke-width:0.5;"/>
     </g>
     <g id="line2d_85">
      <g>
       <use style="stroke:#000000;stroke-width:0.5;" x="524.2134375" xlink:href="#m93b0483c22" y="527.94"/>
      </g>
     </g>
     <g id="line2d_86">
      <g>
       <use style="stroke:#000000;stroke-width:0.5;" x="524.2134375" xlink:href="#m741efc42ff" y="297.18"/>
      </g>
     </g>
     <g id="text_28">
      <!-- 5 -->
      <g transform="translate(521.36625 540.529375)scale(0.12 -0.12)">
       <use xlink:href="#ArialMT-35"/>
      </g>
     </g>
    </g>
    <g id="text_29">
     <!-- Dirichlet symmetric $\alpha$ -->
     <g transform="translate(233.439375 556.554375)scale(0.12 -0.12)">
      <use transform="translate(0.0 0.421875)" xlink:href="#ArialMT-44"/>
      <use transform="translate(72.216796875 0.421875)" xlink:href="#ArialMT-69"/>
      <use transform="translate(94.43359375 0.421875)" xlink:href="#ArialMT-72"/>
      <use transform="translate(127.734375 0.421875)" xlink:href="#ArialMT-69"/>
      <use transform="translate(149.951171875 0.421875)" xlink:href="#ArialMT-63"/>
      <use transform="translate(199.951171875 0.421875)" xlink:href="#ArialMT-68"/>
      <use transform="translate(255.56640625 0.421875)" xlink:href="#ArialMT-6c"/>
      <use transform="translate(277.783203125 0.421875)" xlink:href="#ArialMT-65"/>
      <use transform="translate(333.3984375 0.421875)" xlink:href="#ArialMT-74"/>
      <use transform="translate(361.181640625 0.421875)" xlink:href="#ArialMT-20"/>
      <use transform="translate(388.96484375 0.421875)" xlink:href="#ArialMT-73"/>
      <use transform="translate(438.96484375 0.421875)" xlink:href="#ArialMT-79"/>
      <use transform="translate(488.96484375 0.421875)" xlink:href="#ArialMT-6d"/>
      <use transform="translate(572.265625 0.421875)" xlink:href="#ArialMT-6d"/>
      <use transform="translate(655.56640625 0.421875)" xlink:href="#ArialMT-65"/>
      <use transform="translate(711.181640625 0.421875)" xlink:href="#ArialMT-74"/>
      <use transform="translate(738.96484375 0.421875)" xlink:href="#ArialMT-72"/>
      <use transform="translate(772.265625 0.421875)" xlink:href="#ArialMT-69"/>
      <use transform="translate(794.482421875 0.421875)" xlink:href="#ArialMT-63"/>
      <use transform="translate(844.482421875 0.421875)" xlink:href="#ArialMT-20"/>
      <use transform="translate(872.265625 0.421875)" xlink:href="#Cmmi10-ae"/>
     </g>
    </g>
   </g>
   <g id="matplotlib.axis_4">
    <g id="ytick_7">
     <g id="line2d_87">
      <path clip-path="url(#p00b790fa5f)" d="
M55.1053 504.864
L524.213 504.864" style="fill:none;stroke:#000000;stroke-dasharray:1.000000,3.000000;stroke-dashoffset:0.0;stroke-width:0.5;"/>
     </g>
     <g id="line2d_88">
      <g>
       <use style="stroke:#000000;stroke-width:0.5;" x="55.1053125" xlink:href="#m728421d6d4" y="504.864"/>
      </g>
     </g>
     <g id="line2d_89">
      <g>
       <use style="stroke:#000000;stroke-width:0.5;" x="524.2134375" xlink:href="#mcb0005524f" y="504.864"/>
      </g>
     </g>
     <g id="text_30">
      <!-- 0.2 -->
      <defs>
       <path d="
M52.8281 31.2031
L5.5625 31.2031
L5.5625 39.4062
L52.8281 39.4062
z
" id="ArialMT-2212"/>
      </defs>
      <g transform="translate(28.7159375 507.9661875)scale(0.12 -0.12)">
       <use xlink:href="#ArialMT-2212"/>
       <use x="58.3984375" xlink:href="#ArialMT-30"/>
       <use x="114.013671875" xlink:href="#ArialMT-2e"/>
       <use x="141.796875" xlink:href="#ArialMT-32"/>
      </g>
     </g>
    </g>
    <g id="ytick_8">
     <g id="line2d_90">
      <path clip-path="url(#p00b790fa5f)" d="
M55.1053 458.712
L524.213 458.712" style="fill:none;stroke:#000000;stroke-dasharray:1.000000,3.000000;stroke-dashoffset:0.0;stroke-width:0.5;"/>
     </g>
     <g id="line2d_91">
      <g>
       <use style="stroke:#000000;stroke-width:0.5;" x="55.1053125" xlink:href="#m728421d6d4" y="458.712"/>
      </g>
     </g>
     <g id="line2d_92">
      <g>
       <use style="stroke:#000000;stroke-width:0.5;" x="524.2134375" xlink:href="#mcb0005524f" y="458.712"/>
      </g>
     </g>
     <g id="text_31">
      <!-- 0.0 -->
      <g transform="translate(35.4978125 461.8141875)scale(0.12 -0.12)">
       <use xlink:href="#ArialMT-30"/>
       <use x="55.615234375" xlink:href="#ArialMT-2e"/>
       <use x="83.3984375" xlink:href="#ArialMT-30"/>
      </g>
     </g>
    </g>
    <g id="ytick_9">
     <g id="line2d_93">
      <path clip-path="url(#p00b790fa5f)" d="
M55.1053 412.56
L524.213 412.56" style="fill:none;stroke:#000000;stroke-dasharray:1.000000,3.000000;stroke-dashoffset:0.0;stroke-width:0.5;"/>
     </g>
     <g id="line2d_94">
      <g>
       <use style="stroke:#000000;stroke-width:0.5;" x="55.1053125" xlink:href="#m728421d6d4" y="412.56"/>
      </g>
     </g>
     <g id="line2d_95">
      <g>
       <use style="stroke:#000000;stroke-width:0.5;" x="524.2134375" xlink:href="#mcb0005524f" y="412.56"/>
      </g>
     </g>
     <g id="text_32">
      <!-- 0.2 -->
      <g transform="translate(35.5559375 415.6621875)scale(0.12 -0.12)">
       <use xlink:href="#ArialMT-30"/>
       <use x="55.615234375" xlink:href="#ArialMT-2e"/>
       <use x="83.3984375" xlink:href="#ArialMT-32"/>
      </g>
     </g>
    </g>
    <g id="ytick_10">
     <g id="line2d_96">
      <path clip-path="url(#p00b790fa5f)" d="
M55.1053 366.408
L524.213 366.408" style="fill:none;stroke:#000000;stroke-dasharray:1.000000,3.000000;stroke-dashoffset:0.0;stroke-width:0.5;"/>
     </g>
     <g id="line2d_97">
      <g>
       <use style="stroke:#000000;stroke-width:0.5;" x="55.1053125" xlink:href="#m728421d6d4" y="366.408"/>
      </g>
     </g>
     <g id="line2d_98">
      <g>
       <use style="stroke:#000000;stroke-width:0.5;" x="524.2134375" xlink:href="#mcb0005524f" y="366.408"/>
      </g>
     </g>
     <g id="text_33">
      <!-- 0.4 -->
      <g transform="translate(35.5034375 369.5101875)scale(0.12 -0.12)">
       <use xlink:href="#ArialMT-30"/>
       <use x="55.615234375" xlink:href="#ArialMT-2e"/>
       <use x="83.3984375" xlink:href="#ArialMT-34"/>
      </g>
     </g>
    </g>
    <g id="ytick_11">
     <g id="line2d_99">
      <path clip-path="url(#p00b790fa5f)" d="
M55.1053 320.256
L524.213 320.256" style="fill:none;stroke:#000000;stroke-dasharray:1.000000,3.000000;stroke-dashoffset:0.0;stroke-width:0.5;"/>
     </g>
     <g id="line2d_100">
      <g>
       <use style="stroke:#000000;stroke-width:0.5;" x="55.1053125" xlink:href="#m728421d6d4" y="320.256"/>
      </g>
     </g>
     <g id="line2d_101">
      <g>
       <use style="stroke:#000000;stroke-width:0.5;" x="524.2134375" xlink:href="#mcb0005524f" y="320.256"/>
      </g>
     </g>
     <g id="text_34">
      <!-- 0.6 -->
      <defs>
       <path d="
M49.75 54.0469
L41.0156 53.375
Q39.8438 58.5469 37.7031 60.8906
Q34.125 64.6562 28.9062 64.6562
Q24.7031 64.6562 21.5312 62.3125
Q17.3906 59.2812 14.9844 53.4688
Q12.5938 47.6562 12.5 36.9219
Q15.6719 41.75 20.2656 44.0938
Q24.8594 46.4375 29.8906 46.4375
Q38.6719 46.4375 44.8438 39.9688
Q51.0312 33.5 51.0312 23.25
Q51.0312 16.5 48.125 10.7188
Q45.2188 4.9375 40.1406 1.85938
Q35.0625 -1.21875 28.6094 -1.21875
Q17.625 -1.21875 10.6875 6.85938
Q3.76562 14.9375 3.76562 33.5
Q3.76562 54.25 11.4219 63.6719
Q18.1094 71.875 29.4375 71.875
Q37.8906 71.875 43.2812 67.1406
Q48.6875 62.4062 49.75 54.0469
M13.875 23.1875
Q13.875 18.6562 15.7969 14.5
Q17.7188 10.3594 21.1875 8.17188
Q24.6562 6 28.4688 6
Q34.0312 6 38.0312 10.4844
Q42.0469 14.9844 42.0469 22.7031
Q42.0469 30.125 38.0781 34.3906
Q34.125 38.6719 28.125 38.6719
Q22.1719 38.6719 18.0156 34.3906
Q13.875 30.125 13.875 23.1875" id="ArialMT-36"/>
      </defs>
      <g transform="translate(35.4734375 323.3581875)scale(0.12 -0.12)">
       <use xlink:href="#ArialMT-30"/>
       <use x="55.615234375" xlink:href="#ArialMT-2e"/>
       <use x="83.3984375" xlink:href="#ArialMT-36"/>
      </g>
     </g>
    </g>
    <g id="text_35">
     <!-- Bias -->
     <g transform="translate(21.3309375 423.560625)rotate(-90.0)scale(0.12 -0.12)">
      <use xlink:href="#ArialMT-42"/>
      <use x="66.69921875" xlink:href="#ArialMT-69"/>
      <use x="88.916015625" xlink:href="#ArialMT-61"/>
      <use x="144.53125" xlink:href="#ArialMT-73"/>
     </g>
    </g>
   </g>
   <g id="patch_9">
    <path d="
M55.1053 297.18
L524.213 297.18" style="fill:none;stroke:#000000;"/>
   </g>
   <g id="patch_10">
    <path d="
M524.213 527.94
L524.213 297.18" style="fill:none;stroke:#000000;"/>
   </g>
   <g id="patch_11">
    <path d="
M55.1053 527.94
L524.213 527.94" style="fill:none;stroke:#000000;"/>
   </g>
   <g id="patch_12">
    <path d="
M55.1053 527.94
L55.1053 297.18" style="fill:none;stroke:#000000;"/>
   </g>
   <g id="legend_2">
    <g id="patch_13">
     <path d="
M69.7764 349.607
L517.013 349.607
L517.013 304.38
L69.7764 304.38
L69.7764 349.607
z
" style="fill:#ffffff;stroke:#000000;"/>
    </g>
    <g id="line2d_102">
     <path d="
M79.8564 315.407
L100.016 315.407" style="fill:none;stroke:#000000;stroke-linecap:square;stroke-width:1.5;"/>
    </g>
    <g id="line2d_103"/>
    <g id="text_36">
     <!-- Plugin -->
     <g transform="translate(115.8564375 320.44725)scale(0.144 -0.144)">
      <use xlink:href="#ArialMT-50"/>
      <use x="66.69921875" xlink:href="#ArialMT-6c"/>
      <use x="88.916015625" xlink:href="#ArialMT-75"/>
      <use x="144.53125" xlink:href="#ArialMT-67"/>
      <use x="200.146484375" xlink:href="#ArialMT-69"/>
      <use x="222.36328125" xlink:href="#ArialMT-6e"/>
     </g>
    </g>
    <g id="line2d_104">
     <path d="
M79.8564 335.945
L100.016 335.945" style="fill:none;stroke:#0000ff;stroke-linecap:square;stroke-width:1.5;"/>
    </g>
    <g id="line2d_105"/>
    <g id="text_37">
     <!-- Miller -->
     <g transform="translate(115.8564375 340.98525)scale(0.144 -0.144)">
      <use xlink:href="#ArialMT-4d"/>
      <use x="83.30078125" xlink:href="#ArialMT-69"/>
      <use x="105.517578125" xlink:href="#ArialMT-6c"/>
      <use x="127.734375" xlink:href="#ArialMT-6c"/>
      <use x="149.951171875" xlink:href="#ArialMT-65"/>
      <use x="205.56640625" xlink:href="#ArialMT-72"/>
     </g>
    </g>
    <g id="line2d_106">
     <path d="
M186.902 315.407
L207.062 315.407" style="fill:none;stroke:#ff0000;stroke-linecap:square;stroke-width:1.5;"/>
    </g>
    <g id="line2d_107"/>
    <g id="text_38">
     <!-- Jackknife -->
     <g transform="translate(222.9024375 320.44725)scale(0.144 -0.144)">
      <use xlink:href="#ArialMT-4a"/>
      <use x="50.0" xlink:href="#ArialMT-61"/>
      <use x="105.615234375" xlink:href="#ArialMT-63"/>
      <use x="155.615234375" xlink:href="#ArialMT-6b"/>
      <use x="205.615234375" xlink:href="#ArialMT-6b"/>
      <use x="255.615234375" xlink:href="#ArialMT-6e"/>
      <use x="311.23046875" xlink:href="#ArialMT-69"/>
      <use x="333.447265625" xlink:href="#ArialMT-66"/>
      <use x="361.23046875" xlink:href="#ArialMT-65"/>
     </g>
    </g>
    <g id="line2d_108">
     <path d="
M186.902 335.776
L207.062 335.776" style="fill:none;stroke:#bf00bf;stroke-linecap:square;stroke-width:1.5;"/>
    </g>
    <g id="line2d_109"/>
    <g id="text_39">
     <!-- GB2003 -->
     <g transform="translate(222.9024375 340.8165)scale(0.144 -0.144)">
      <use xlink:href="#ArialMT-47"/>
      <use x="77.783203125" xlink:href="#ArialMT-42"/>
      <use x="144.482421875" xlink:href="#ArialMT-32"/>
      <use x="200.09765625" xlink:href="#ArialMT-30"/>
      <use x="255.712890625" xlink:href="#ArialMT-30"/>
      <use x="311.328125" xlink:href="#ArialMT-33"/>
     </g>
    </g>
    <g id="line2d_110">
     <path d="
M315.062 315.407
L335.222 315.407" style="fill:none;stroke:#008000;stroke-linecap:square;stroke-width:1.5;"/>
    </g>
    <g id="line2d_111"/>
    <g id="text_40">
     <!-- Hausser -->
     <g transform="translate(351.0624375 320.44725)scale(0.144 -0.144)">
      <use xlink:href="#ArialMT-48"/>
      <use x="72.216796875" xlink:href="#ArialMT-61"/>
      <use x="127.83203125" xlink:href="#ArialMT-75"/>
      <use x="183.447265625" xlink:href="#ArialMT-73"/>
      <use x="233.447265625" xlink:href="#ArialMT-73"/>
      <use x="283.447265625" xlink:href="#ArialMT-65"/>
      <use x="339.0625" xlink:href="#ArialMT-72"/>
     </g>
    </g>
    <g id="line2d_112">
     <path d="
M315.062 335.776
L335.222 335.776" style="fill:none;stroke:#000000;stroke-dasharray:6.000000,6.000000;stroke-dashoffset:0.0;stroke-width:1.5;"/>
    </g>
    <g id="line2d_113"/>
    <g id="text_41">
     <!-- Poly -->
     <g transform="translate(351.0624375 340.8165)scale(0.144 -0.144)">
      <use xlink:href="#ArialMT-50"/>
      <use x="66.69921875" xlink:href="#ArialMT-6f"/>
      <use x="122.314453125" xlink:href="#ArialMT-6c"/>
      <use x="144.53125" xlink:href="#ArialMT-79"/>
     </g>
    </g>
    <g id="line2d_114">
     <path d="
M436.844 315.407
L457.004 315.407" style="fill:none;stroke:#0000ff;stroke-dasharray:6.000000,6.000000;stroke-dashoffset:0.0;stroke-width:1.5;"/>
    </g>
    <g id="line2d_115"/>
    <g id="text_42">
     <!-- Bayes -->
     <g transform="translate(472.8436875 320.44725)scale(0.144 -0.144)">
      <use xlink:href="#ArialMT-42"/>
      <use x="66.69921875" xlink:href="#ArialMT-61"/>
      <use x="122.314453125" xlink:href="#ArialMT-79"/>
      <use x="172.314453125" xlink:href="#ArialMT-65"/>
      <use x="227.9296875" xlink:href="#ArialMT-73"/>
     </g>
    </g>
    <g id="line2d_116">
     <path d="
M436.844 335.945
L457.004 335.945" style="fill:none;stroke:#ff0000;stroke-dasharray:6.000000,6.000000;stroke-dashoffset:0.0;stroke-width:1.5;"/>
    </g>
    <g id="line2d_117"/>
    <g id="text_43">
     <!-- NSB -->
     <g transform="translate(472.8436875 340.98525)scale(0.144 -0.144)">
      <use xlink:href="#ArialMT-4e"/>
      <use x="72.216796875" xlink:href="#ArialMT-53"/>
      <use x="138.916015625" xlink:href="#ArialMT-42"/>
     </g>
    </g>
   </g>
  </g>
 </g>
 <defs>
  <clipPath id="p00b790fa5f">
   <rect height="230.76" width="469.108125" x="55.1053125" y="297.18"/>
  </clipPath>
  <clipPath id="p613e24783a">
   <rect height="230.76" width="469.108125" x="55.1053125" y="18.36"/>
  </clipPath>
 </defs>
</svg>
