<svg xmlns="http://www.w3.org/2000/svg" viewBox="0 0 211.645 195.197"><g data-name="Layer 2"><g data-name="ART"><path d="M22.863 127.04c.045-4.112.326-30.199.386-47.34a1.896 1.896 0 012.48-1.68c2.45.733 6.128 2.734 8.219 8.184a1.93 1.93 0 003.285.325l5.258-6.98a1.988 1.988 0 012.82-.323l16.875 14.398a1.6 1.6 0 01.578 1.302 291.232 291.232 0 01-2.107 22.93 1.603 1.603 0 00.489 1.376l16.568 15.884a1.692 1.692 0 01-.848 2.851c-9.303 2.672-38.795 9.216-53.666-9.923a1.606 1.606 0 01-.337-1.004z" fill="#e39d74"/><path d="M54.721 142.302c-11.36 0-24.086-2.897-32.39-13.583a2.72 2.72 0 01-.568-1.69c.054-4.926.326-30.357.386-47.334a2.805 2.805 0 011.167-2.252 3.097 3.097 0 012.729-.477c2.853.854 6.72 3.083 8.93 8.845a.66.66 0 00.542.377.887.887 0 00.837-.32l5.258-6.981a3.07 3.07 0 012.116-1.187 3.038 3.038 0 012.297.69L62.9 92.787a2.693 2.693 0 01.962 2.193 292.671 292.671 0 01-2.115 23.022.503.503 0 00.16.437l16.569 15.883a2.685 2.685 0 01.766 2.608 2.915 2.915 0 01-2.073 2.094 84.777 84.777 0 01-22.448 3.278zm-30.758-15.25a.507.507 0 00.106.318c14.51 18.674 43.847 12.024 52.493 9.54a.74.74 0 00.544-.509.488.488 0 00-.153-.49l-16.568-15.885a2.686 2.686 0 01-.818-2.316 290.48 290.48 0 002.098-22.838.502.502 0 00-.192-.41L44.597 80.064a.85.85 0 00-.63-.177.864.864 0 00-.598.324l-5.257 6.98a3.09 3.09 0 01-2.9 1.175 2.815 2.815 0 01-2.291-1.768c-1.89-4.927-5.126-6.812-7.508-7.525a.89.89 0 00-.787.138.631.631 0 00-.277.492c-.06 16.985-.332 42.422-.386 47.349z" fill="#3e4147"/><path d="M100.867 178.484c-1.462-8.725-2.454-58.037-44.953-50.588a1.393 1.393 0 01-.327.016c-2.167-.13-25.032-2.005-37.82-23.389a1.71 1.71 0 01-.243-.854c-.054-3.69-.94-28.76-14.99-26.356a1.734 1.734 0 00-1.413 1.967l5.407 34.243a16.858 16.858 0 002.906 7.13l19.335 27.231c1.704 2.4 4.139 4.562 7.072 4.807 19.165 1.598 26.349 16.027 29.88 31.478.202.883 1.599.396 2.493.255l30.059-4.747c.844-.133 2.736-.35 2.594-1.193z" fill="#f7c9a1"/><path d="M66.578 185.77a1.742 1.742 0 01-1.93-1.356c-5.891-25.783-19.314-29.828-28.898-30.628-3.635-.302-6.29-3.03-7.878-5.264L8.537 121.289a18.047 18.047 0 01-3.095-7.595L.034 79.452A2.834 2.834 0 012.35 76.23a9.952 9.952 0 018.4 2.136c7.23 6.006 7.828 22.118 7.875 25.286a.616.616 0 00.086.307c12.438 20.796 34.472 22.706 36.943 22.856 11.265-1.968 20.623-.2 27.891 5.24 14.367 10.755 16.896 33.206 17.975 42.793.167 1.481.299 2.652.433 3.454a1.596 1.596 0 01-.285 1.209c-.575.793-1.758 1.03-3.024 1.223l-30.257 4.777c-.143.022-.3.055-.462.089a6.769 6.769 0 01-1.346.17zM4.39 78.25a9.904 9.904 0 00-1.67.148.634.634 0 00-.512.71l5.407 34.243a15.838 15.838 0 002.716 6.665l19.335 27.232c1.078 1.518 3.326 4.102 6.266 4.346 21.26 1.773 27.77 19 30.781 31.984.238-.024.564-.092.767-.134.198-.04.389-.079.563-.107l30.27-4.778a9.5 9.5 0 001.406-.295 99.55 99.55 0 01-.386-3.17c-1.048-9.304-3.501-31.093-17.107-41.278-6.763-5.062-15.552-6.69-26.121-4.836a2.295 2.295 0 01-.586.03c-2.589-.156-25.68-2.156-38.697-23.922a2.817 2.817 0 01-.398-1.402c-.027-1.84-.455-18.123-7.08-23.628a7.501 7.501 0 00-4.954-1.809zm95.393 100.415z" fill="#3e4147"/><path d="M65.457 127.312s-14.695-.538-30.64-13.719a1.822 1.822 0 01-.152-.14c-.82-.853-8.81-8.75-18.313-3.028a1.72 1.72 0 00-.304 2.696l25.055 24.508" fill="#f7c9a1"/><path d="M41.103 138.729a1.094 1.094 0 01-.769-.314l-25.055-24.508a2.818 2.818 0 01.506-4.425c10.212-6.152 18.735 2.231 19.673 3.208 15.497 12.816 29.897 13.517 30.041 13.522a1.101 1.101 0 011.057 1.14 1.132 1.132 0 01-1.139 1.06c-.615-.023-15.252-.706-31.302-13.97a2.812 2.812 0 01-.245-.23c-.812-.842-8.2-8.112-16.951-2.845a.592.592 0 00-.284.447.62.62 0 00.182.52l25.056 24.509a1.1 1.1 0 01-.77 1.886z" fill="#3e4147"/><rect x="61.736" y="175.273" width="41.281" height="18.824" rx="3.884" fill="#d8e9f7"/><path d="M99.134 195.197H65.62a4.99 4.99 0 01-4.985-4.984v-11.056a4.99 4.99 0 014.985-4.983h33.513a4.99 4.99 0 014.984 4.983v11.056a4.99 4.99 0 01-4.984 4.984zM65.62 176.373a2.787 2.787 0 00-2.785 2.784v11.056a2.788 2.788 0 002.785 2.785h33.513a2.788 2.788 0 002.784-2.785v-11.056a2.787 2.787 0 00-2.784-2.784z" fill="#3e4147"/><path d="M188.782 127.04c-.045-4.112-.326-30.199-.386-47.34a1.896 1.896 0 00-2.48-1.68c-2.45.733-6.128 2.734-8.219 8.184a1.93 1.93 0 01-3.285.325l-5.258-6.98a1.988 1.988 0 00-2.82-.323l-16.875 14.398a1.6 1.6 0 00-.578 1.302 291.23 291.23 0 002.107 22.93 1.603 1.603 0 01-.489 1.376l-16.569 15.884a1.692 1.692 0 00.849 2.851c9.303 2.672 38.794 9.216 53.666-9.923a1.606 1.606 0 00.337-1.004z" fill="#e39d74"/><path d="M156.923 142.302a84.763 84.763 0 01-22.448-3.277 2.914 2.914 0 01-2.072-2.095 2.686 2.686 0 01.766-2.608l16.569-15.883a.502.502 0 00.16-.437 293.267 293.267 0 01-2.115-23.022 2.695 2.695 0 01.963-2.194L165.62 78.39a3.025 3.025 0 012.297-.69 3.07 3.07 0 012.116 1.187l5.257 6.98a.887.887 0 00.838.32.66.66 0 00.542-.376c2.21-5.762 6.076-7.99 8.93-8.845a3.092 3.092 0 012.729.477 2.807 2.807 0 011.167 2.252c.06 16.863.332 42.388.386 47.333a2.719 2.719 0 01-.568 1.69c-8.303 10.685-21.03 13.584-32.391 13.584zm10.65-62.42a.806.806 0 00-.524.18l-16.876 14.399a.504.504 0 00-.193.411c.13 2.66.669 12.171 2.098 22.837a2.688 2.688 0 01-.817 2.317l-16.57 15.884a.49.49 0 00-.152.491.741.741 0 00.544.508c8.646 2.483 37.983 9.134 52.493-9.54a.503.503 0 00.106-.316v-.001c-.054-4.946-.326-30.479-.386-47.349a.63.63 0 00-.277-.492.888.888 0 00-.786-.138c-2.383.713-5.619 2.598-7.509 7.525a2.815 2.815 0 01-2.29 1.768 3.077 3.077 0 01-2.901-1.176l-5.257-6.979a.864.864 0 00-.599-.324 1.26 1.26 0 00-.104-.005z" fill="#3e4147"/><path d="M110.777 178.484c1.463-8.725 2.455-58.037 44.953-50.588a1.393 1.393 0 00.328.016c2.166-.13 25.032-2.005 37.82-23.389a1.71 1.71 0 00.243-.854c.054-3.69.94-28.76 14.99-26.356a1.734 1.734 0 011.413 1.967l-5.407 34.243a16.858 16.858 0 01-2.906 7.13l-19.336 27.231c-1.703 2.4-4.138 4.562-7.071 4.807-19.165 1.598-26.349 16.027-29.88 31.478-.202.883-1.599.396-2.493.255l-30.059-4.747c-.844-.133-2.736-.35-2.595-1.193z" fill="#f7c9a1"/><path d="M145.067 185.77a6.771 6.771 0 01-1.346-.17 9.542 9.542 0 00-.462-.09l-30.257-4.777c-1.266-.192-2.45-.43-3.024-1.222a1.598 1.598 0 01-.286-1.21c.135-.8.267-1.972.433-3.453 1.08-9.587 3.608-32.038 17.976-42.792 7.268-5.442 16.628-7.202 27.82-5.242 2.542-.149 24.576-2.06 37.013-22.855a.615.615 0 00.087-.306c.047-3.17.646-19.282 7.875-25.288a9.964 9.964 0 018.4-2.135 2.834 2.834 0 012.315 3.222l-5.408 34.242a18.05 18.05 0 01-3.095 7.595l-19.336 27.233c-1.587 2.235-4.241 4.962-7.877 5.265-9.583.799-23.006 4.844-28.899 30.627a1.742 1.742 0 01-1.929 1.357zm-33.142-7.506a9.503 9.503 0 001.408.295l.211.032 30.058 4.746c.174.028.365.066.563.107.203.042.53.11.766.134 3.012-12.984 9.523-30.21 30.781-31.984 2.94-.244 5.189-2.828 6.267-4.346l19.335-27.232a15.84 15.84 0 002.716-6.665l5.407-34.242a.634.634 0 00-.512-.711 7.761 7.761 0 00-6.624 1.66c-6.624 5.504-7.053 21.789-7.08 23.628a2.813 2.813 0 01-.399 1.402c-13.016 21.766-36.108 23.766-38.698 23.922a2.322 2.322 0 01-.578-.03c-10.575-1.854-19.364-.226-26.127 4.837-13.606 10.184-16.06 31.973-17.107 41.277-.146 1.292-.265 2.352-.387 3.17zm-.063.401v-.004.004z" fill="#3e4147"/><path d="M146.187 127.312s14.696-.538 30.642-13.719a1.822 1.822 0 00.151-.14c.82-.853 8.81-8.75 18.313-3.028a1.72 1.72 0 01.304 2.696l-25.055 24.508" fill="#f7c9a1"/><path d="M170.541 138.729a1.1 1.1 0 01-.769-1.886l25.055-24.508a.623.623 0 00.183-.521.592.592 0 00-.284-.447c-8.75-5.266-16.14 2.002-16.953 2.848a2.953 2.953 0 01-.24.224c-16.053 13.267-30.69 13.95-31.305 13.972a1.134 1.134 0 01-1.14-1.058 1.101 1.101 0 011.058-1.141c.144-.005 14.544-.706 29.982-13.466.997-1.033 9.52-9.411 19.733-3.263a2.819 2.819 0 01.504 4.425l-25.054 24.507a1.094 1.094 0 01-.77.314z" fill="#3e4147"/><rect x="108.627" y="175.273" width="41.281" height="18.824" rx="3.884" transform="rotate(-180 129.268 184.685)" fill="#d8e9f7"/><path d="M146.024 195.197h-33.513a4.99 4.99 0 01-4.984-4.984v-11.056a4.99 4.99 0 014.984-4.983h33.513a4.99 4.99 0 014.985 4.983v11.056a4.99 4.99 0 01-4.985 4.984zm-33.513-18.824a2.787 2.787 0 00-2.784 2.784v11.056a2.788 2.788 0 002.784 2.785h33.513a2.788 2.788 0 002.784-2.785v-11.056a2.787 2.787 0 00-2.784-2.784z" fill="#3e4147"/><path d="M182.067 57.21a42.535 42.535 0 00.318-4.548c.668-26.97-19.39-49.343-44.801-49.972a44.389 44.389 0 00-31.078 11.78 1.132 1.132 0 01-1.567-.032A45.63 45.63 0 0073.913 1.114C48.04.474 26.523 21.817 25.854 48.787a50.027 50.027 0 007.856 28.32c8.474 15.517 28.089 42.533 69.367 64.451a9.01 9.01 0 009.322-.541c12.672-8.707 48.571-35.129 63.425-64.463a50.657 50.657 0 006.243-19.344z" fill="#f3783c"/><path d="M114.137 114.778A74.343 74.343 0 0149.227 7.72a49.285 49.285 0 00-23.373 41.067 50.026 50.026 0 007.856 28.32c8.474 15.517 28.088 42.533 69.367 64.451a9.01 9.01 0 009.322-.541c8.858-6.086 29.06-20.834 45.495-39.176a73.985 73.985 0 01-43.757 12.937z" fill="#df642f"/><ellipse cx="151.295" cy="19.806" rx="4.858" ry="5.667" transform="rotate(-37.462 151.295 19.806)" fill="#fff8e9"/><path d="M107.29 143.711a10.07 10.07 0 01-4.729-1.18C60.436 120.16 40.737 92.27 32.745 77.634a51.488 51.488 0 016.912-63.82 46.575 46.575 0 0166.055-.16 45.799 45.799 0 0131.9-12.065c25.976.643 46.555 23.567 45.873 51.1a43.802 43.802 0 01-.325 4.647 51.506 51.506 0 01-6.38 19.759c-4.89 9.66-20.941 35.409-63.758 64.827a10.11 10.11 0 01-5.732 1.788zM72.772 2.199a44.55 44.55 0 00-31.566 13.178 49.295 49.295 0 00-6.57 61.137c7.914 14.485 27.339 41.973 68.957 64.073a7.884 7.884 0 008.183-.477c42.399-29.131 58.229-54.499 63.066-64.053a49.396 49.396 0 006.132-18.97v-.01a41.632 41.632 0 00.312-4.43c.651-26.331-18.965-48.244-43.73-48.858a43.29 43.29 0 00-30.31 11.493 2.24 2.24 0 01-3.08-.061 44.61 44.61 0 00-30.28-13.008 46.974 46.974 0 00-1.114-.014z" fill="#3e4147"/></g></g></svg>
